<svg width="60" height="60" viewBox="0 0 60 60" fill="none" xmlns="http://www.w3.org/2000/svg">
<path d="M29.8992 0C16.8992 0 5.79922 8.4 1.69922 20H58.2992C54.0992 8.4 42.9992 0 29.8992 0Z" fill="#F2B200"/>
<path d="M29.8992 60C42.9992 60 54.0992 51.7 58.1992 40H1.69922C5.79922 51.7 16.8992 60 29.8992 60Z" fill="#83BF4F"/>
<path d="M1.7 20C0.6 23.1 0 26.5 0 30C0 33.5 0.6 36.9 1.7 40H58.3C59.4 36.9 60 33.5 60 30C60 26.5 59.4 23.1 58.3 20H1.7Z" fill="white"/>
<path d="M29.9004 38C34.3187 38 37.9004 34.4183 37.9004 30C37.9004 25.5817 34.3187 22 29.9004 22C25.4821 22 21.9004 25.5817 21.9004 30C21.9004 34.4183 25.4821 38 29.9004 38Z" fill="#428BC1"/>
<path d="M29.9004 37C33.7664 37 36.9004 33.866 36.9004 30C36.9004 26.134 33.7664 23 29.9004 23C26.0344 23 22.9004 26.134 22.9004 30C22.9004 33.866 26.0344 37 29.9004 37Z" fill="white"/>
<path d="M27.3008 24C27.5769 24 27.8008 23.7761 27.8008 23.5C27.8008 23.2239 27.5769 23 27.3008 23C27.0246 23 26.8008 23.2239 26.8008 23.5C26.8008 23.7761 27.0246 24 27.3008 24Z" fill="#428BC1"/>
<path d="M25.6992 24.9004C25.9754 24.9004 26.1992 24.6765 26.1992 24.4004C26.1992 24.1242 25.9754 23.9004 25.6992 23.9004C25.4231 23.9004 25.1992 24.1242 25.1992 24.4004C25.1992 24.6765 25.4231 24.9004 25.6992 24.9004Z" fill="#428BC1"/>
<path d="M24.4004 26.2012C24.6765 26.2012 24.9004 25.9773 24.9004 25.7012C24.9004 25.425 24.6765 25.2012 24.4004 25.2012C24.1242 25.2012 23.9004 25.425 23.9004 25.7012C23.9004 25.9773 24.1242 26.2012 24.4004 26.2012Z" fill="#428BC1"/>
<path d="M23.5 27.8008C23.7761 27.8008 24 27.5769 24 27.3008C24 27.0246 23.7761 26.8008 23.5 26.8008C23.2239 26.8008 23 27.0246 23 27.3008C23 27.5769 23.2239 27.8008 23.5 27.8008Z" fill="#428BC1"/>
<path d="M23 29.6016C23.2761 29.6016 23.5 29.3777 23.5 29.1016C23.5 28.8254 23.2761 28.6016 23 28.6016C22.7239 28.6016 22.5 28.8254 22.5 29.1016C22.5 29.3777 22.7239 29.6016 23 29.6016Z" fill="#428BC1"/>
<path d="M23 31.4004C23.2761 31.4004 23.5 31.1765 23.5 30.9004C23.5 30.6242 23.2761 30.4004 23 30.4004C22.7239 30.4004 22.5 30.6242 22.5 30.9004C22.5 31.1765 22.7239 31.4004 23 31.4004Z" fill="#428BC1"/>
<path d="M23.5 33.2012C23.7761 33.2012 24 32.9773 24 32.7012C24 32.425 23.7761 32.2012 23.5 32.2012C23.2239 32.2012 23 32.425 23 32.7012C23 32.9773 23.2239 33.2012 23.5 33.2012Z" fill="#428BC1"/>
<path d="M24.4004 34.8008C24.6765 34.8008 24.9004 34.5769 24.9004 34.3008C24.9004 34.0246 24.6765 33.8008 24.4004 33.8008C24.1242 33.8008 23.9004 34.0246 23.9004 34.3008C23.9004 34.5769 24.1242 34.8008 24.4004 34.8008Z" fill="#428BC1"/>
<path d="M25.6992 36.1016C25.9754 36.1016 26.1992 35.8777 26.1992 35.6016C26.1992 35.3254 25.9754 35.1016 25.6992 35.1016C25.4231 35.1016 25.1992 35.3254 25.1992 35.6016C25.1992 35.8777 25.4231 36.1016 25.6992 36.1016Z" fill="#428BC1"/>
<path d="M27.3008 37C27.5769 37 27.8008 36.7761 27.8008 36.5C27.8008 36.2239 27.5769 36 27.3008 36C27.0246 36 26.8008 36.2239 26.8008 36.5C26.8008 36.7761 27.0246 37 27.3008 37Z" fill="#428BC1"/>
<path d="M29 37.4004C29.2761 37.4004 29.5 37.1765 29.5 36.9004C29.5 36.6242 29.2761 36.4004 29 36.4004C28.7239 36.4004 28.5 36.6242 28.5 36.9004C28.5 37.1765 28.7239 37.4004 29 37.4004Z" fill="#428BC1"/>
<path d="M30.4004 37.0004C30.4004 36.7004 30.6004 36.5004 30.8004 36.4004C31.1004 36.4004 31.3004 36.6004 31.4004 36.8004C31.4004 37.1004 31.2004 37.3004 31.0004 37.4004C30.6004 37.5004 30.4004 37.3004 30.4004 37.0004Z" fill="#428BC1"/>
<path d="M32.5996 37C32.8758 37 33.0996 36.7761 33.0996 36.5C33.0996 36.2239 32.8758 36 32.5996 36C32.3235 36 32.0996 36.2239 32.0996 36.5C32.0996 36.7761 32.3235 37 32.5996 37Z" fill="#428BC1"/>
<path d="M34.1992 36.1016C34.4754 36.1016 34.6992 35.8777 34.6992 35.6016C34.6992 35.3254 34.4754 35.1016 34.1992 35.1016C33.9231 35.1016 33.6992 35.3254 33.6992 35.6016C33.6992 35.8777 33.9231 36.1016 34.1992 36.1016Z" fill="#428BC1"/>
<path d="M35.5 34.8008C35.7761 34.8008 36 34.5769 36 34.3008C36 34.0246 35.7761 33.8008 35.5 33.8008C35.2239 33.8008 35 34.0246 35 34.3008C35 34.5769 35.2239 34.8008 35.5 34.8008Z" fill="#428BC1"/>
<path d="M36.4004 33.2012C36.6765 33.2012 36.9004 32.9773 36.9004 32.7012C36.9004 32.425 36.6765 32.2012 36.4004 32.2012C36.1242 32.2012 35.9004 32.425 35.9004 32.7012C35.9004 32.9773 36.1242 33.2012 36.4004 33.2012Z" fill="#428BC1"/>
<path d="M36.9004 31.4004C37.1765 31.4004 37.4004 31.1765 37.4004 30.9004C37.4004 30.6242 37.1765 30.4004 36.9004 30.4004C36.6242 30.4004 36.4004 30.6242 36.4004 30.9004C36.4004 31.1765 36.6242 31.4004 36.9004 31.4004Z" fill="#428BC1"/>
<path d="M36.9008 29.6016C36.6008 29.6016 36.4008 29.4016 36.3008 29.2016C36.3008 28.9016 36.5008 28.7016 36.7008 28.6016C37.0008 28.6016 37.2008 28.8016 37.3008 29.0016C37.4008 29.3016 37.2008 29.5016 36.9008 29.6016Z" fill="#428BC1"/>
<path d="M36.4004 27.8008C36.6765 27.8008 36.9004 27.5769 36.9004 27.3008C36.9004 27.0246 36.6765 26.8008 36.4004 26.8008C36.1242 26.8008 35.9004 27.0246 35.9004 27.3008C35.9004 27.5769 36.1242 27.8008 36.4004 27.8008Z" fill="#428BC1"/>
<path d="M35.5 26.2012C35.7761 26.2012 36 25.9773 36 25.7012C36 25.425 35.7761 25.2012 35.5 25.2012C35.2239 25.2012 35 25.425 35 25.7012C35 25.9773 35.2239 26.2012 35.5 26.2012Z" fill="#428BC1"/>
<path d="M34.1992 24.9004C34.4754 24.9004 34.6992 24.6765 34.6992 24.4004C34.6992 24.1242 34.4754 23.9004 34.1992 23.9004C33.9231 23.9004 33.6992 24.1242 33.6992 24.4004C33.6992 24.6765 33.9231 24.9004 34.1992 24.9004Z" fill="#428BC1"/>
<path d="M33.1 23.7006C33 24.0006 32.7 24.1006 32.4 24.0006C32.1 23.9006 32 23.6006 32.1 23.3006C32.2 23.0006 32.5 22.9006 32.8 23.0006C33.1 23.2006 33.2 23.5006 33.1 23.7006ZM31.3 23.1006C31.3 23.4006 31 23.6006 30.7 23.5006C30.4 23.5006 30.2 23.2006 30.3 22.9006C30.3 22.6006 30.6 22.4006 30.9 22.5006C31.2 22.6006 31.4 22.9006 31.3 23.1006ZM29.5 23.0006C29.5 23.3006 29.3 23.5006 29.1 23.6006C28.8 23.6006 28.6 23.4006 28.5 23.2006C28.5 22.9006 28.7 22.7006 28.9 22.6006C29.2 22.5006 29.5 22.7006 29.5 23.0006Z" fill="#428BC1"/>
<path d="M29.9004 31.5C30.7288 31.5 31.4004 30.8284 31.4004 30C31.4004 29.1716 30.7288 28.5 29.9004 28.5C29.072 28.5 28.4004 29.1716 28.4004 30C28.4004 30.8284 29.072 31.5 29.9004 31.5Z" fill="#428BC1"/>
<path d="M29.8996 23L29.6996 27.3L29.8996 30L30.1996 27.3L29.8996 23ZM28.0996 23.2L28.9996 27.5L29.8996 30L29.4996 27.3L28.0996 23.2Z" fill="#428BC1"/>
<path d="M26.4 23.9004L28.4 27.8004L29.9 30.0004L28.8 27.5004L26.4 23.9004ZM25 25.0004L27.9 28.3004L29.9 30.0004L28.2 27.9004L25 25.0004Z" fill="#428BC1"/>
<path d="M23.9004 26.5L27.5004 28.9L29.9004 30L27.7004 28.4L23.9004 26.5Z" fill="#428BC1"/>
<path d="M23.2004 28.2012L27.3004 29.5012L29.9004 30.0012L27.4004 29.1012L23.2004 28.2012ZM22.9004 30.0012L27.3004 30.2012L29.9004 30.0012L27.3004 29.8012L22.9004 30.0012Z" fill="#428BC1"/>
<path d="M23.1992 31.8L27.3992 30.9L29.8992 30L27.2992 30.5L23.1992 31.8ZM23.8992 33.5L27.6992 31.6L29.8992 30L27.4992 31.1L23.8992 33.5Z" fill="#428BC1"/>
<path d="M25 34.9L28.2 32.1L29.9 30L27.9 31.7L25 34.9ZM26.4 36.1L28.8 32.4L29.9 30L28.4 32.2L26.4 36.1Z" fill="#428BC1"/>
<path d="M28.0996 36.8L29.4996 32.7L29.8996 30L28.9996 32.5L28.0996 36.8ZM29.8996 37L30.1996 32.7L29.8996 30L29.6996 32.7L29.8996 37ZM31.6996 36.8L30.8996 32.5L29.8996 30L30.3996 32.7L31.6996 36.8Z" fill="#428BC1"/>
<path d="M33.4004 36.1L31.5004 32.2L29.9004 30L31.1004 32.5L33.4004 36.1ZM34.9004 34.9L32.0004 31.7L29.9004 30L31.7004 32.1L34.9004 34.9Z" fill="#428BC1"/>
<path d="M36.0004 33.5012L32.4004 31.1012L29.9004 30.0012L32.1004 31.6012L36.0004 33.5012ZM36.7004 31.8012L32.6004 30.5012L29.9004 30.0012L32.5004 30.9012L36.7004 31.8012ZM36.9004 30.0012L32.6004 29.7012L29.9004 30.0012L32.6004 30.2012L36.9004 30.0012ZM36.7004 28.2012L32.5004 29.1012L29.9004 30.0012L32.6004 29.5012L36.7004 28.2012Z" fill="#428BC1"/>
<path d="M36.0004 26.5016L32.1004 28.4016L29.9004 30.0016L32.4004 28.9016L36.0004 26.5016ZM34.9004 25.1016L31.7004 27.9016L29.9004 30.0016L32.0004 28.3016L34.9004 25.1016Z" fill="#428BC1"/>
<path d="M33.4004 23.9004L31.1004 27.6004L29.9004 30.0004L31.5004 27.8004L33.4004 23.9004Z" fill="#428BC1"/>
<path d="M31.8004 23.2012L30.4004 27.3012L29.9004 30.0012L30.9004 27.5012L31.8004 23.2012Z" fill="#428BC1"/>
</svg>
