<svg width="60" height="60" viewBox="0 0 60 60" fill="none" xmlns="http://www.w3.org/2000/svg">
<path d="M0 30C0 35.9 1.7 41.4 4.6 46H55.3C58.2 41.4 59.9 35.9 59.9 30C59.9 24.1 58.2 18.6 55.3 14H4.6C1.7 18.6 0 24.1 0 30Z" fill="#FFCE31"/>
<path d="M55.3996 14C50.0996 5.6 40.6996 0 29.9996 0C19.2996 0 9.89961 5.6 4.59961 14H55.3996ZM4.59961 46C9.89961 54.4 19.2996 60 29.9996 60C40.6996 60 50.0996 54.4 55.3996 46H4.59961Z" fill="#ED4C5C"/>
<path d="M7.19922 26.6992H10.3992V28.4992H7.19922V26.6992ZM7.19922 39.8992H10.4992V41.5992H7.19922V39.8992Z" fill="#C8B100"/>
<path d="M6.90039 37.0996C6.60039 37.2996 6.40039 37.4996 6.40039 37.5996C6.40039 37.6996 6.50039 37.7996 6.70039 37.8996C6.90039 37.9996 7.10039 38.1996 7.00039 38.3996C7.20039 38.1996 7.30039 37.9996 7.30039 37.7996C7.30039 37.4996 7.10039 37.1996 6.90039 37.0996Z" fill="#ED4C5C"/>
<path d="M7.69922 28.5H9.99922V39.9H7.69922V28.5Z" fill="white"/>
<path d="M12.4 32.7C11.9 32.5 11 32.3 9.99997 32.3C9.69997 32.3 9.29997 32.3 8.89997 32.4C7.49997 32.6 6.39997 33.2 6.49997 33.6L5.99997 32.5C5.89997 32 7.09997 31.4 8.59997 31.1C9.09997 31 9.59997 31 9.99997 31C11 31 11.9 31.1 12.4 31.3V32.7Z" fill="#ED4C5C"/>
<path d="M7.69961 34.2C7.09961 34.2 6.59961 34 6.59961 33.7C6.59961 33.5 6.79961 33.2 7.19961 33H7.79961L7.69961 34.2ZM9.99961 33.3C10.3996 33.4 10.6996 33.5 10.8996 33.6C10.9996 33.7 10.5996 34.1 9.99961 34.4V33.3Z" fill="#ED4C5C"/>
<path d="M6.20093 36.3996C6.10093 36.1996 6.80093 35.7996 7.70093 35.4996C8.10093 35.3996 8.40093 35.1996 8.90093 34.9996C10.1009 34.4996 11.1009 33.7996 10.9009 33.5996L11.1009 34.7996C11.2009 34.9996 10.4009 35.5996 9.20093 36.1996C8.80093 36.3996 8.10093 36.6996 7.70093 36.7996C7.00093 36.9996 6.40093 37.3996 6.40093 37.4996L6.20093 36.3996Z" fill="#ED4C5C"/>
<path d="M28.6996 26.6992H31.8996V28.4992H28.6996V26.6992ZM28.5996 39.8992H31.8996V41.5992H28.5996V39.8992Z" fill="#C8B100"/>
<path d="M32.2008 37.0996C32.5008 37.2996 32.7008 37.4996 32.7008 37.5996C32.7008 37.6996 32.6008 37.7996 32.4008 37.8996C32.2008 38.0996 32.0008 38.3996 32.1008 38.4996C31.9008 38.2996 31.8008 38.0996 31.8008 37.8996C31.8008 37.4996 32.0008 37.1996 32.2008 37.0996Z" fill="#ED4C5C"/>
<path d="M29.0996 28.5H31.3996V39.9H29.0996V28.5Z" fill="white"/>
<path d="M26.7012 32.7C27.2012 32.5 28.1012 32.3 29.1012 32.3C29.4012 32.3 29.8012 32.3 30.2012 32.4C31.6012 32.6 32.7012 33.2 32.6012 33.6L33.1012 32.4C33.2012 31.9 32.0012 31.3 30.5012 31H29.1012C28.1012 31 27.2012 31.1 26.7012 31.3V32.7Z" fill="#ED4C5C"/>
<path d="M31.4009 34.2C32.0009 34.2 32.5009 34 32.5009 33.7C32.5009 33.5 32.3009 33.2 31.9009 33H31.3009L31.4009 34.2ZM29.1009 33.3C28.7009 33.4 28.4009 33.5 28.2009 33.6C28.1009 33.7 28.5009 34.1 29.1009 34.4V33.3Z" fill="#ED4C5C"/>
<path d="M32.9008 36.4008C33.0008 36.2008 32.3008 35.8008 31.4008 35.5008C31.0008 35.4008 30.7008 35.2008 30.2008 35.0008C29.0008 34.5008 28.0008 33.8008 28.2008 33.6008L28.0008 34.8008C27.9008 35.0008 28.7008 35.6008 29.9008 36.2008C30.3008 36.4008 31.0008 36.7008 31.4008 36.8008C32.1008 37.0008 32.7008 37.5008 32.6008 37.6008L32.9008 36.4008ZM19.5008 20.3008C21.4008 20.3008 25.3008 20.7008 26.7008 22.1008C25.2008 25.7008 22.8008 24.2008 19.5008 24.2008C16.3008 24.2008 13.8008 25.7008 12.3008 22.1008C13.7008 20.7008 17.5008 20.3008 19.5008 20.3008Z" fill="#ED4C5C"/>
<path d="M24.4008 24.3C23.2008 23.6 21.4008 23.5 19.5008 23.5C17.6008 23.5 15.8008 23.7 14.6008 24.3L15.0008 26C16.1008 26.3 17.7008 26.5 19.5008 26.5C21.3008 26.5 22.8008 26.3 24.0008 26L24.4008 24.3ZM26.1008 20C25.7008 19.7 24.9008 19.4 24.2008 19.4C23.9008 19.4 23.6008 19.4 23.3008 19.5C23.3008 19.5 22.7008 18.7 21.3008 18.7C20.8008 18.7 20.4008 18.8 20.0008 19V18.9C19.9008 18.7 19.7008 18.5 19.5008 18.5C19.3008 18.5 19.0008 18.8 19.0008 19V19.1C18.6008 18.9 18.2008 18.8 17.7008 18.8C16.3008 18.8 15.7008 19.7 15.7008 19.6C15.4008 19.5 15.1008 19.5 14.8008 19.5C10.2008 19.5 12.5008 22.6 12.5008 22.6L13.0008 22C11.9008 20.6 12.9008 19.8 14.9008 19.8C15.2008 19.8 15.4008 19.8 15.6008 19.9C14.9008 20.9 16.2008 21.8 16.2008 21.8L16.5008 21.3C15.8008 20.8 15.7008 19.1 17.7008 19.1C18.2008 19.1 18.6008 19.2 19.0008 19.5C19.0008 19.6 18.9008 21 18.8008 21.2L19.6008 21.9L20.4008 21.2C20.3008 20.9 20.2008 19.6 20.2008 19.5C20.5008 19.3 21.0008 19.1 21.5008 19.1C23.6008 19.1 23.6008 20.8 22.7008 21.3L23.0008 21.8C23.0008 21.8 24.1008 20.9 23.6008 19.9C23.8008 19.9 24.1008 19.8 24.3008 19.8C26.7008 19.8 26.8008 21.6 26.2008 22L26.6008 22.6C26.4008 22.6 27.5008 21.2 26.1008 20Z" fill="#C8B100"/>
<path d="M18.9004 18.1C18.9004 17.8 19.2004 17.5 19.5004 17.5C19.9004 17.5 20.1004 17.8 20.1004 18.1C20.1004 18.4 19.8004 18.7 19.5004 18.7C19.2004 18.7 18.9004 18.4 18.9004 18.1Z" fill="#005BBF"/>
<path d="M19.3004 16.4004V16.7004H19.0004V17.0004H19.3004V18.0004H18.9004V18.3004H20.1004L20.2004 18.1004L20.1004 18.0004H19.7004V17.0004H20.0004V16.7004H19.7004V16.4004H19.3004Z" fill="#C8B100"/>
<path d="M19.5004 26.3008C17.9004 26.3008 16.5004 26.1008 15.4004 25.8008C16.5004 25.5008 17.9004 25.3008 19.5004 25.3008C21.1004 25.3008 22.5004 25.5008 23.6004 25.8008C22.6004 26.1008 21.1004 26.3008 19.5004 26.3008Z" fill="#ED4C5C"/>
<path d="M19.6004 43.5996C17.7004 43.5996 15.9004 43.0996 14.3004 42.3996C13.1004 41.7996 12.4004 40.6996 12.4004 39.3996V34.5996H26.8004V39.3996C26.8004 40.6996 26.0004 41.8996 24.9004 42.3996C23.3004 43.1996 21.5004 43.5996 19.6004 43.5996ZM19.5004 26.5996H26.7004V34.5996H19.5004V26.5996Z" fill="white"/>
<path d="M19.6004 39.3996C19.6004 41.2996 18.0004 42.7996 16.0004 42.7996C14.0004 42.7996 12.4004 41.2996 12.4004 39.3996V34.5996H19.6004V39.3996Z" fill="#ED4C5C"/>
<path d="M13.9008 42.2004C14.1008 42.3004 14.4008 42.5004 14.8008 42.6004V34.4004H14.0008L13.9008 42.2004ZM12.3008 39.3004C12.3008 40.3004 12.7008 41.1004 13.1008 41.5004V34.4004H12.3008V39.3004Z" fill="#C8B100"/>
<path d="M15.5 42.8004H16.3V34.4004H15.5V42.8004Z" fill="#C7B500"/>
<path d="M17.0996 42.6004C17.3996 42.5004 17.7996 42.3004 17.9996 42.2004V34.4004H17.1996L17.0996 42.6004Z" fill="#C8B100"/>
<path d="M12.3008 26.5996H19.5008V34.5996H12.3008V26.5996Z" fill="#ED4C5C"/>
<path d="M18.8008 41.5C19.2008 41.2 19.5008 40.5 19.6008 39.7V34.5H18.8008V41.5Z" fill="#C8B100"/>
<path d="M26.8004 34.6009V39.4009C26.8004 41.3009 25.2004 42.8009 23.2004 42.8009C21.2004 42.8009 19.6004 41.3009 19.6004 39.4009V34.6009H26.8004ZM24.2004 28.0009C24.5004 28.6009 24.5004 30.1009 23.6004 29.8009C23.8004 29.9009 23.9004 30.6009 24.2004 31.0009C24.7004 31.6009 25.3004 31.1009 25.2004 30.4009C25.0004 29.3009 25.1004 28.6009 25.3004 27.5009C25.3004 27.6009 25.8004 27.6009 26.0004 27.4009C25.9004 27.7009 25.8004 28.1009 26.0004 28.1009C25.8004 28.4009 25.3004 28.9009 25.2004 29.2009C25.1004 29.9009 26.2004 31.2009 25.0004 31.5009C24.2004 31.7009 24.7004 32.3009 25.0004 32.6009C25.0004 32.6009 24.6004 33.9009 24.8004 33.8009C24.0004 34.1009 24.2004 33.4009 24.2004 33.4009C24.6004 32.2009 23.5004 32.1009 23.6004 31.9009C22.6004 31.8009 23.7004 32.8009 22.8004 32.8009C22.6004 32.8009 22.2004 33.0009 22.2004 33.0009C21.1004 32.9009 21.7004 31.9009 22.1004 32.0009C22.4004 32.1009 22.7004 32.6009 22.7004 31.9009C22.7004 31.9009 22.2004 31.1009 23.5004 31.1009C23.0004 31.1009 22.7004 30.7009 22.5004 30.2009C22.3004 30.3009 22.0004 30.8009 20.9004 30.9009C20.9004 30.9009 20.6004 29.8009 20.9004 30.0009C21.3004 30.2009 21.5004 30.2009 21.9004 29.8009C21.7004 29.5009 20.5004 29.1009 20.7004 28.4009C20.7004 28.2009 21.3004 27.9009 21.3004 27.9009C21.2004 28.4009 21.5004 28.9009 22.1004 28.9009C22.9004 29.0009 22.6004 28.7009 22.7004 28.5009C22.8004 28.3009 23.4004 28.6009 23.2004 28.1009C23.2004 28.0009 22.5004 27.9009 22.7004 27.6009C23.1004 27.1009 23.7004 27.5009 24.2004 28.0009ZM19.6004 42.6009L19.4004 42.1009L19.6004 41.5009L19.8004 42.1009L19.6004 42.6009Z" fill="#ED4C5C"/>
<path d="M14.5004 28.3V28.8H14.7004V29.2H14.2004V30.2H14.5004V32.4H13.9004V33.5H18.0004V32.4H17.5004V30.2H17.7004V29.2H17.2004V28.8H17.5004V28.3H16.5004V28.8H16.7004V29.2H16.2004V28H16.5004V27.5H15.4004V28H15.7004V29.2H15.2004V28.8H15.4004V28.3H14.5004ZM25.8004 40.6V35.6H20.6004V40.6L23.0004 41.7H23.3004L25.8004 40.6ZM23.0004 36V37.7L21.3004 36H23.0004ZM20.9004 36.1L22.9004 38.1L20.9004 40.1V36.1ZM21.1004 40.5L23.0004 38.6V41.4L21.1004 40.5ZM23.3004 41.3V38.5L25.2004 40.4L23.3004 41.3ZM25.4004 40.1L23.4004 38.1L25.4004 36.1V40.1ZM23.3004 36H25.0004L23.3004 37.7V36Z" fill="#C8B100"/>
<path d="M17.1992 34.5004C17.1992 33.0004 18.1992 31.9004 19.4992 31.9004C20.7992 31.9004 21.7992 33.1004 21.7992 34.5004C21.7992 35.9004 20.7992 37.1004 19.4992 37.1004C18.1992 37.1004 17.1992 36.0004 17.1992 34.5004Z" fill="#ED4C5C"/>
<path d="M17.9004 34.4996C17.9004 33.3996 18.6004 32.5996 19.5004 32.5996C20.4004 32.5996 21.1004 33.4996 21.1004 34.4996C21.1004 35.5996 20.4004 36.3996 19.5004 36.3996C18.7004 36.4996 17.9004 35.5996 17.9004 34.4996Z" fill="#005BBF"/>
<path d="M18.8004 33.1992L18.4004 34.2992L18.7004 34.3992L18.5004 34.7992H19.1004L18.9004 34.3992L19.2004 34.2992L18.8004 33.1992ZM20.3004 33.1992L19.9004 34.2992L20.2004 34.3992L20.0004 34.7992H20.6004L20.5004 34.3992L20.8004 34.2992L20.3004 33.1992ZM19.6004 34.4992L19.1004 35.5992L19.4004 35.6992L19.3004 36.0992H19.8004L19.7004 35.6992L20.0004 35.5992L19.6004 34.4992Z" fill="#C8B100"/>
</svg>
