<svg width="60" height="60" viewBox="0 0 60 60" fill="none" xmlns="http://www.w3.org/2000/svg">
<path d="M15 56V4C6 9.2 0 18.9 0 30C0 41.1 6 50.8 15 56Z" fill="#699635"/>
<path d="M30 0C24.5 0 19.4 1.5 15 4V56C19.4 58.6 24.5 60 30 60C46.6 60 60 46.6 60 30C60 13.4 46.6 0 30 0Z" fill="#ED4C5C"/>
<path d="M15 18C8.4 18 3 23.4 3 30C3 36.6 8.4 42 15 42C21.6 42 27 36.6 27 30C27 23.4 21.6 18 15 18ZM15 40.5C9.2 40.5 4.5 35.8 4.5 30C4.5 24.2 9.2 19.5 15 19.5C20.8 19.5 25.5 24.2 25.5 30C25.5 35.8 20.8 40.5 15 40.5Z" fill="#FFE62E"/>
<path d="M19.0988 41.6992C18.8988 41.8992 18.5988 41.8992 18.3988 41.6992L4.69883 23.5992C4.49883 23.3992 4.49883 23.0992 4.69883 22.8992L4.99883 22.5992C5.19883 22.3992 5.49883 22.3992 5.69883 22.5992L19.3988 40.6992C19.5988 40.8992 19.5988 41.1992 19.3988 41.3992L19.0988 41.6992Z" fill="#FFE62E"/>
<path d="M15.1992 17.5C15.4992 17.5 15.6992 17.7 15.6992 18V42C15.6992 42.3 15.4992 42.5 15.1992 42.5H14.6992C14.3992 42.5 14.1992 42.3 14.1992 42V18C14.1992 17.7 14.3992 17.5 14.6992 17.5H15.1992Z" fill="#FFE62E"/>
<path d="M26.8993 31.2996L14.9993 29.1996V30.6996L26.6993 32.7996C26.9993 32.7996 27.1993 32.6996 27.2993 32.3996L27.3993 31.8996C27.3993 31.6996 27.1993 31.3996 26.8993 31.2996ZM14.9993 29.0996L5.59925 22.4996C5.39925 22.2996 5.09925 22.3996 4.89925 22.5996L4.59925 22.9996C4.39925 23.1996 4.49925 23.4996 4.69925 23.6996L14.9993 30.8996V29.0996Z" fill="#FFE62E"/>
<path d="M14.5996 28L5.19964 37.4C4.99964 37.6 4.99964 37.9 5.19964 38.1L5.59964 38.5C5.79964 38.7 6.09964 38.7 6.29964 38.5L14.5996 30.2V28ZM14.9996 23.5L2.49964 29.4C2.29964 29.5 2.09964 29.8 2.29964 30.1L2.49964 30.6C2.59964 30.8 2.89964 31 3.19964 30.8L14.9996 25.2V23.5Z" fill="#FFE62E"/>
<path d="M26.0992 25.1996L14.1992 23.0996V24.5996L25.8992 26.6996C26.1992 26.6996 26.3992 26.5996 26.4992 26.2996L26.5992 25.7996C26.4992 25.4996 26.2992 25.1996 26.0992 25.1996ZM14.8992 36.8996C14.6992 36.9996 14.4992 37.2996 14.6992 37.5996L14.8992 38.0996C14.9992 38.2996 15.2992 38.4996 15.5992 38.2996L25.5992 33.6996L26.0992 31.7996L14.8992 36.8996ZM14.8992 33.4996L3.69922 29.3996V30.9996L14.8992 35.0996V33.4996Z" fill="#FFE62E"/>
<path d="M7.09961 36.8008V38.3008L21.8996 39.3008C22.4996 38.9008 22.9996 38.4008 23.4996 37.9008L7.09961 36.8008Z" fill="#FFE62E"/>
<path d="M10 25V32C10 34.8 12.2 37 15 37C17.8 37 20 34.8 20 32V25H10Z" fill="white"/>
<path d="M15 39C11.1 39 8 35.9 8 32V23H22V32C22 35.9 18.9 39 15 39ZM12 27V32C12 33.7 13.3 35 15 35C16.7 35 18 33.7 18 32V27H12Z" fill="#ED4C5C"/>
<path d="M14.0996 27.4008V29.0008C14.0996 29.3008 14.2996 29.5008 14.5996 29.5008H15.3996C15.6996 29.5008 15.8996 29.3008 15.8996 29.0008V27.3008H14.0996V27.4008ZM14.0996 29.9008V31.6008C14.0996 31.9008 14.2996 32.1008 14.5996 32.1008H15.3996C15.6996 32.1008 15.8996 31.9008 15.8996 31.6008V29.9008H14.0996ZM12.0996 29.9008V31.6008C12.0996 31.9008 12.2996 32.1008 12.5996 32.1008H13.3996C13.6996 32.1008 13.8996 31.9008 13.8996 31.6008V29.9008H12.0996ZM16.0996 29.9008V31.6008C16.0996 31.9008 16.2996 32.1008 16.5996 32.1008H17.3996C17.6996 32.1008 17.8996 31.9008 17.8996 31.6008V29.9008H16.0996ZM14.0996 32.3008V34.0008C14.0996 34.3008 14.2996 34.5008 14.5996 34.5008H15.3996C15.6996 34.5008 15.8996 34.3008 15.8996 34.0008V32.3008H14.0996Z" fill="#0071BC"/>
<path d="M15.0008 31.0992C15.1112 31.0992 15.2008 31.0097 15.2008 30.8992C15.2008 30.7888 15.1112 30.6992 15.0008 30.6992C14.8903 30.6992 14.8008 30.7888 14.8008 30.8992C14.8008 31.0097 14.8903 31.0992 15.0008 31.0992Z" fill="white"/>
<path d="M14.6004 31.5992C14.7108 31.5992 14.8004 31.5097 14.8004 31.3992C14.8004 31.2888 14.7108 31.1992 14.6004 31.1992C14.4899 31.1992 14.4004 31.2888 14.4004 31.3992C14.4004 31.5097 14.4899 31.5992 14.6004 31.5992Z" fill="white"/>
<path d="M15.4012 31.5992C15.5116 31.5992 15.6012 31.5097 15.6012 31.3992C15.6012 31.2888 15.5116 31.1992 15.4012 31.1992C15.2907 31.1992 15.2012 31.2888 15.2012 31.3992C15.2012 31.5097 15.2907 31.5992 15.4012 31.5992Z" fill="white"/>
<path d="M14.6004 30.5992C14.7108 30.5992 14.8004 30.5097 14.8004 30.3992C14.8004 30.2888 14.7108 30.1992 14.6004 30.1992C14.4899 30.1992 14.4004 30.2888 14.4004 30.3992C14.4004 30.5097 14.4899 30.5992 14.6004 30.5992Z" fill="white"/>
<path d="M15.4012 30.5992C15.5116 30.5992 15.6012 30.5097 15.6012 30.3992C15.6012 30.2888 15.5116 30.1992 15.4012 30.1992C15.2907 30.1992 15.2012 30.2888 15.2012 30.3992C15.2012 30.5097 15.2907 30.5992 15.4012 30.5992Z" fill="white"/>
<path d="M15.0008 28.5992C15.1112 28.5992 15.2008 28.5097 15.2008 28.3992C15.2008 28.2888 15.1112 28.1992 15.0008 28.1992C14.8903 28.1992 14.8008 28.2888 14.8008 28.3992C14.8008 28.5097 14.8903 28.5992 15.0008 28.5992Z" fill="white"/>
<path d="M14.6004 29.0992C14.7108 29.0992 14.8004 29.0097 14.8004 28.8992C14.8004 28.7888 14.7108 28.6992 14.6004 28.6992C14.4899 28.6992 14.4004 28.7888 14.4004 28.8992C14.4004 29.0097 14.4899 29.0992 14.6004 29.0992Z" fill="white"/>
<path d="M15.4012 29.0992C15.5116 29.0992 15.6012 29.0097 15.6012 28.8992C15.6012 28.7888 15.5116 28.6992 15.4012 28.6992C15.2907 28.6992 15.2012 28.7888 15.2012 28.8992C15.2012 29.0097 15.2907 29.0992 15.4012 29.0992Z" fill="white"/>
<path d="M14.6004 28.0992C14.7108 28.0992 14.8004 28.0097 14.8004 27.8992C14.8004 27.7888 14.7108 27.6992 14.6004 27.6992C14.4899 27.6992 14.4004 27.7888 14.4004 27.8992C14.4004 28.0097 14.4899 28.0992 14.6004 28.0992Z" fill="white"/>
<path d="M15.4012 28.0992C15.5116 28.0992 15.6012 28.0097 15.6012 27.8992C15.6012 27.7888 15.5116 27.6992 15.4012 27.6992C15.2907 27.6992 15.2012 27.7888 15.2012 27.8992C15.2012 28.0097 15.2907 28.0992 15.4012 28.0992Z" fill="white"/>
<path d="M17.0008 31.0992C17.1112 31.0992 17.2008 31.0097 17.2008 30.8992C17.2008 30.7888 17.1112 30.6992 17.0008 30.6992C16.8903 30.6992 16.8008 30.7888 16.8008 30.8992C16.8008 31.0097 16.8903 31.0992 17.0008 31.0992Z" fill="white"/>
<path d="M16.6004 31.5992C16.7108 31.5992 16.8004 31.5097 16.8004 31.3992C16.8004 31.2888 16.7108 31.1992 16.6004 31.1992C16.4899 31.1992 16.4004 31.2888 16.4004 31.3992C16.4004 31.5097 16.4899 31.5992 16.6004 31.5992Z" fill="white"/>
<path d="M17.4012 31.5992C17.5116 31.5992 17.6012 31.5097 17.6012 31.3992C17.6012 31.2888 17.5116 31.1992 17.4012 31.1992C17.2907 31.1992 17.2012 31.2888 17.2012 31.3992C17.2012 31.5097 17.2907 31.5992 17.4012 31.5992Z" fill="white"/>
<path d="M16.6004 30.5992C16.7108 30.5992 16.8004 30.5097 16.8004 30.3992C16.8004 30.2888 16.7108 30.1992 16.6004 30.1992C16.4899 30.1992 16.4004 30.2888 16.4004 30.3992C16.4004 30.5097 16.4899 30.5992 16.6004 30.5992Z" fill="white"/>
<path d="M17.4012 30.5992C17.5116 30.5992 17.6012 30.5097 17.6012 30.3992C17.6012 30.2888 17.5116 30.1992 17.4012 30.1992C17.2907 30.1992 17.2012 30.2888 17.2012 30.3992C17.2012 30.5097 17.2907 30.5992 17.4012 30.5992Z" fill="white"/>
<path d="M13.0008 31.0992C13.1112 31.0992 13.2008 31.0097 13.2008 30.8992C13.2008 30.7888 13.1112 30.6992 13.0008 30.6992C12.8903 30.6992 12.8008 30.7888 12.8008 30.8992C12.8008 31.0097 12.8903 31.0992 13.0008 31.0992Z" fill="white"/>
<path d="M12.6004 31.5992C12.7108 31.5992 12.8004 31.5097 12.8004 31.3992C12.8004 31.2888 12.7108 31.1992 12.6004 31.1992C12.4899 31.1992 12.4004 31.2888 12.4004 31.3992C12.4004 31.5097 12.4899 31.5992 12.6004 31.5992Z" fill="white"/>
<path d="M13.4012 31.5992C13.5116 31.5992 13.6012 31.5097 13.6012 31.3992C13.6012 31.2888 13.5116 31.1992 13.4012 31.1992C13.2907 31.1992 13.2012 31.2888 13.2012 31.3992C13.2012 31.5097 13.2907 31.5992 13.4012 31.5992Z" fill="white"/>
<path d="M12.6004 30.5992C12.7108 30.5992 12.8004 30.5097 12.8004 30.3992C12.8004 30.2888 12.7108 30.1992 12.6004 30.1992C12.4899 30.1992 12.4004 30.2888 12.4004 30.3992C12.4004 30.5097 12.4899 30.5992 12.6004 30.5992Z" fill="white"/>
<path d="M13.4012 30.5992C13.5116 30.5992 13.6012 30.5097 13.6012 30.3992C13.6012 30.2888 13.5116 30.1992 13.4012 30.1992C13.2907 30.1992 13.2012 30.2888 13.2012 30.3992C13.2012 30.5097 13.2907 30.5992 13.4012 30.5992Z" fill="white"/>
<path d="M15.0008 33.5992C15.1112 33.5992 15.2008 33.5097 15.2008 33.3992C15.2008 33.2888 15.1112 33.1992 15.0008 33.1992C14.8903 33.1992 14.8008 33.2888 14.8008 33.3992C14.8008 33.5097 14.8903 33.5992 15.0008 33.5992Z" fill="white"/>
<path d="M14.6004 34.0992C14.7108 34.0992 14.8004 34.0097 14.8004 33.8992C14.8004 33.7888 14.7108 33.6992 14.6004 33.6992C14.4899 33.6992 14.4004 33.7888 14.4004 33.8992C14.4004 34.0097 14.4899 34.0992 14.6004 34.0992Z" fill="white"/>
<path d="M15.4012 34.0992C15.5116 34.0992 15.6012 34.0097 15.6012 33.8992C15.6012 33.7888 15.5116 33.6992 15.4012 33.6992C15.2907 33.6992 15.2012 33.7888 15.2012 33.8992C15.2012 34.0097 15.2907 34.0992 15.4012 34.0992Z" fill="white"/>
<path d="M14.6004 33.0992C14.7108 33.0992 14.8004 33.0097 14.8004 32.8992C14.8004 32.7888 14.7108 32.6992 14.6004 32.6992C14.4899 32.6992 14.4004 32.7888 14.4004 32.8992C14.4004 33.0097 14.4899 33.0992 14.6004 33.0992Z" fill="white"/>
<path d="M15.4012 33.0992C15.5116 33.0992 15.6012 33.0097 15.6012 32.8992C15.6012 32.7888 15.5116 32.6992 15.4012 32.6992C15.2907 32.6992 15.2012 32.7888 15.2012 32.8992C15.2012 33.0097 15.2907 33.0992 15.4012 33.0992Z" fill="white"/>
<path d="M14 26H16L15.8 25V24H16V23.5H15.7V23.8H15.6V23.5H15.3V23.8H15.1V23.5H14.9V23.8H14.7V23.5H14.4V23.8H14.2V23.5H14V24H14.2V25L14 26Z" fill="#FFE62E"/>
<path d="M15.3004 25.9996H15.2004V25.5996C15.2004 25.4996 15.1004 25.3996 15.0004 25.3996C14.9004 25.3996 14.8004 25.4996 14.8004 25.5996V25.9996H14.7004V25.5996C14.7004 25.3996 14.8004 25.2996 15.0004 25.2996C15.2004 25.2996 15.3004 25.3996 15.3004 25.5996V25.9996ZM15.0004 24.8996H14.4004V24.3996C14.4004 24.1996 14.5004 24.0996 14.7004 24.0996C14.9004 24.0996 15.0004 24.1996 15.0004 24.3996V24.8996ZM14.5004 24.7996H14.9004V24.3996C14.9004 24.2996 14.8004 24.1996 14.7004 24.1996C14.6004 24.1996 14.5004 24.2996 14.5004 24.3996V24.7996ZM15.6004 24.8996H15.0004V24.3996C15.0004 24.1996 15.1004 24.0996 15.3004 24.0996C15.5004 24.0996 15.6004 24.1996 15.6004 24.3996V24.8996ZM15.1004 24.7996H15.5004V24.3996C15.5004 24.2996 15.4004 24.1996 15.3004 24.1996C15.2004 24.1996 15.1004 24.2996 15.1004 24.3996V24.7996Z" fill="#3E4347"/>
<path d="M9 26H11L10.8 25V24H11V23.5H10.7V23.8H10.6V23.5H10.3V23.8H10.1V23.5H9.9V23.8H9.7V23.5H9.4V23.8H9.2V23.5H9V24H9.2V25L9 26Z" fill="#FFE62E"/>
<path d="M10.3004 25.9996H10.2004V25.5996C10.2004 25.4996 10.1004 25.3996 10.0004 25.3996C9.90039 25.3996 9.80039 25.4996 9.80039 25.5996V25.9996H9.70039V25.5996C9.70039 25.3996 9.80039 25.2996 10.0004 25.2996C10.2004 25.2996 10.3004 25.3996 10.3004 25.5996V25.9996ZM10.0004 24.8996H9.40039V24.3996C9.40039 24.1996 9.50039 24.0996 9.70039 24.0996C9.90039 24.0996 10.0004 24.1996 10.0004 24.3996V24.8996ZM9.50039 24.7996H9.90039V24.3996C9.90039 24.2996 9.80039 24.1996 9.70039 24.1996C9.60039 24.1996 9.50039 24.2996 9.50039 24.3996V24.7996Z" fill="#3E4347"/>
<path d="M10.6 24.8996H10V24.3996C10 24.1996 10.1 24.0996 10.3 24.0996C10.5 24.0996 10.6 24.1996 10.6 24.3996V24.8996ZM10.1 24.7996H10.5V24.3996C10.5 24.2996 10.4 24.1996 10.3 24.1996C10.2 24.1996 10.1 24.2996 10.1 24.3996V24.7996Z" fill="#3E4347"/>
<path d="M9 31.9004H11L10.8 30.9004V29.9004H11V29.4004H10.8V29.7004H10.6V29.4004H10.4V29.7004H10.1V29.4004H9.9V29.7004H9.7V29.4004H9.5V29.7004H9.3V29.4004H9V29.9004H9.3V30.9004L9 31.9004Z" fill="#FFE62E"/>
<path d="M10.3004 31.9H10.2004V31.5C10.2004 31.4 10.1004 31.3 10.0004 31.3C9.90039 31.3 9.80039 31.4 9.80039 31.5V31.9H9.70039V31.5C9.70039 31.3 9.80039 31.2 10.0004 31.2C10.2004 31.2 10.3004 31.3 10.3004 31.5V31.9ZM10.0004 30.8H9.40039V30.3C9.40039 30.1 9.50039 30 9.70039 30C9.90039 30 10.0004 30.1 10.0004 30.3V30.8ZM9.50039 30.7H9.90039V30.3C9.90039 30.2 9.80039 30.1 9.70039 30.1C9.60039 30.1 9.50039 30.2 9.50039 30.3V30.7ZM10.7004 30.8H10.1004V30.3C10.1004 30.1 10.2004 30 10.4004 30C10.6004 30 10.7004 30.1 10.7004 30.3V30.8ZM10.2004 30.7H10.6004V30.3C10.6004 30.2 10.5004 30.1 10.4004 30.1C10.3004 30.1 10.2004 30.2 10.2004 30.3V30.7Z" fill="#3E4347"/>
<path d="M19 31.9996H21L20.8 30.9996V29.9996H21V29.5996H20.7V29.7996H20.6V29.5996H20.3V29.7996H20.1V29.5996H19.9V29.7996H19.7V29.5996H19.4V29.7996H19.2V29.5996H19V29.9996H19.2V30.9996L19 31.9996Z" fill="#FFE62E"/>
<path d="M20.3004 31.9996H20.2004V31.5996C20.2004 31.4996 20.1004 31.3996 20.0004 31.3996C19.9004 31.3996 19.8004 31.4996 19.8004 31.5996V31.9996H19.7004V31.5996C19.7004 31.3996 19.8004 31.2996 20.0004 31.2996C20.2004 31.2996 20.3004 31.3996 20.3004 31.5996V31.9996ZM20.0004 30.8996H19.4004V30.3996C19.4004 30.1996 19.5004 30.0996 19.7004 30.0996C19.9004 30.0996 20.0004 30.1996 20.0004 30.3996V30.8996ZM19.5004 30.7996H19.9004V30.3996C19.9004 30.2996 19.8004 30.1996 19.7004 30.1996C19.6004 30.1996 19.5004 30.2996 19.5004 30.3996V30.7996ZM20.6004 30.8996H20.0004V30.3996C20.0004 30.1996 20.1004 30.0996 20.3004 30.0996C20.5004 30.0996 20.6004 30.1996 20.6004 30.3996V30.8996ZM20.1004 30.7996H20.5004V30.3996C20.5004 30.2996 20.4004 30.1996 20.3004 30.1996C20.2004 30.1996 20.1004 30.2996 20.1004 30.3996V30.7996Z" fill="#3E4347"/>
<path d="M19 26H21L20.8 25V24H21V23.5H20.7V23.8H20.6V23.5H20.3V23.8H20.1V23.5H19.9V23.8H19.7V23.5H19.4V23.8H19.2V23.5H19V24H19.2V25L19 26Z" fill="#FFE62E"/>
<path d="M20.3004 25.9996H20.2004V25.5996C20.2004 25.4996 20.1004 25.3996 20.0004 25.3996C19.9004 25.3996 19.8004 25.4996 19.8004 25.5996V25.9996H19.7004V25.5996C19.7004 25.3996 19.8004 25.2996 20.0004 25.2996C20.2004 25.2996 20.3004 25.3996 20.3004 25.5996V25.9996ZM20.0004 24.8996H19.4004V24.3996C19.4004 24.1996 19.5004 24.0996 19.7004 24.0996C19.9004 24.0996 20.0004 24.1996 20.0004 24.3996V24.8996ZM19.5004 24.7996H19.9004V24.3996C19.9004 24.2996 19.8004 24.1996 19.7004 24.1996C19.6004 24.1996 19.5004 24.2996 19.5004 24.3996V24.7996ZM20.6004 24.8996H20.0004V24.3996C20.0004 24.1996 20.1004 24.0996 20.3004 24.0996C20.5004 24.0996 20.6004 24.1996 20.6004 24.3996V24.8996ZM20.1004 24.7996H20.5004V24.3996C20.5004 24.2996 20.4004 24.1996 20.3004 24.1996C20.2004 24.1996 20.1004 24.2996 20.1004 24.3996V24.7996Z" fill="#3E4347"/>
<path d="M12.2 37.6004L13.6 36.1004L12.7 35.6004L12 34.9004L12.2 34.7004L11.9 34.4004L11.7 34.6004L11.9 34.8004L11.8 34.9004L11.6 34.7004L11.4 34.9004L11.6 35.0004L11.4 35.2004L11.3 35.0004L11.1 35.2004L11.3 35.4004L11.1 35.5004L11 35.3004L10.8 35.5004L10.9 35.7004L10.8 35.8004L10.7 35.6004L10.5 35.8004L10.8 36.1004H10.9L11 36.0004L11.7 36.7004L12.2 37.6004Z" fill="#FFE62E"/>
<path d="M12.6992 36.3996C12.5992 36.2996 12.4992 36.2996 12.3992 36.3996C12.2992 36.4996 12.2992 36.5996 12.3992 36.6996L12.6992 36.9996L12.5992 37.0996L12.2992 36.7996C12.1992 36.6996 12.1992 36.4996 12.2992 36.3996C12.3992 36.2996 12.5992 36.2996 12.6992 36.3996ZM12.0992 36.0996L11.6992 36.4996L11.3992 36.1996C11.2992 36.0996 11.2992 35.8996 11.3992 35.7996C11.4992 35.6996 11.6992 35.6996 11.7992 35.7996L12.0992 36.0996ZM11.6992 36.3996L11.9992 36.0996L11.6992 35.7996C11.5992 35.6996 11.4992 35.6996 11.3992 35.7996C11.2992 35.8996 11.2992 35.9996 11.3992 36.0996L11.6992 36.3996ZM12.5992 35.5996L12.1992 35.9996L11.8992 35.6996C11.7992 35.5996 11.7992 35.3996 11.8992 35.2996C11.9992 35.1996 12.1992 35.1996 12.2992 35.2996L12.5992 35.5996ZM12.1992 35.8996L12.4992 35.5996L12.1992 35.2996C12.0992 35.1996 11.9992 35.1996 11.8992 35.2996C11.7992 35.3996 11.7992 35.4996 11.8992 35.5996L12.1992 35.8996Z" fill="#3E4347"/>
<path d="M17.8004 37.6004L16.4004 36.1004L17.2004 35.6004L17.9004 34.9004L17.8004 34.7004L18.1004 34.4004L18.3004 34.6004L18.1004 34.8004L18.2004 34.9004L18.4004 34.7004L18.6004 34.9004L18.4004 35.0004L18.6004 35.2004L18.7004 35.0004L18.9004 35.2004L18.7004 35.4004L18.9004 35.5004L19.0004 35.3004L19.2004 35.5004L19.0004 35.7004L19.2004 35.8004L19.3004 35.6004L19.5004 35.8004L19.2004 36.1004H19.1004L19.0004 36.0004L18.3004 36.7004L17.8004 37.6004Z" fill="#FFE62E"/>
<path d="M16.9004 36.5996L17.3004 36.3996C17.4004 36.2996 17.5004 36.2996 17.6004 36.3996C17.7004 36.4996 17.7004 36.5996 17.6004 36.6996L17.2004 36.9996L17.3004 37.0996L17.6004 36.7996C17.7004 36.6996 17.7004 36.4996 17.6004 36.3996C17.5004 36.2996 17.3004 36.2996 17.2004 36.3996L16.9004 36.5996ZM18.2004 35.7996C18.3004 35.6996 18.5004 35.6996 18.6004 35.7996C18.7004 35.8996 18.7004 36.0996 18.6004 36.1996L18.3004 36.4996L17.9004 36.0996L18.2004 35.7996ZM18.5004 36.0996C18.6004 35.9996 18.6004 35.8996 18.5004 35.7996C18.4004 35.6996 18.3004 35.6996 18.2004 35.7996L18.0004 36.0996L18.3004 36.3996L18.5004 36.0996ZM17.7004 35.2996C17.8004 35.1996 18.0004 35.1996 18.1004 35.2996C18.2004 35.3996 18.2004 35.5996 18.1004 35.6996L17.8004 35.9996L17.4004 35.5996L17.7004 35.2996ZM18.1004 35.5996C18.2004 35.4996 18.2004 35.3996 18.1004 35.2996C18.0004 35.1996 17.9004 35.1996 17.8004 35.2996L17.5004 35.5996L17.8004 35.8996L18.1004 35.5996Z" fill="#3E4347"/>
</svg>
