<svg width="60" height="60" viewBox="0 0 60 60" fill="none" xmlns="http://www.w3.org/2000/svg">
<path d="M30 60C46.5685 60 60 46.5685 60 30C60 13.4315 46.5685 0 30 0C13.4315 0 0 13.4315 0 30C0 46.5685 13.4315 60 30 60Z" fill="#ED4C5C"/>
<path d="M20 26.4L28 32L25 22.8L33 17H23.1L20 8L17 17H7L15 22.8L12 32L20 26.4ZM33.3 33.3L31 33.8L33.2 34.7V37L34.7 35.3L36.9 36.1L35.6 34.2L37 32.4L34.7 32.9L33.3 31V33.3ZM36.7 26.5L35 28L37.3 27.8L38.3 30L38.7 27.7L41 27.5L39 26.3L39.5 24L37.8 25.5L35.8 24.3L36.7 26.5ZM37.3 18.7L38 21L38.7 18.8H41L39.2 17.4L39.9 15.1L38 16.5L36.2 15L36.9 17.3L35 18.6L37.3 18.7ZM33.3 10.7V13L34.7 11.1L37 11.6L35.6 9.8L36.9 7.9L34.7 8.8L33.2 7V9.3L31 10.2L33.3 10.7Z" fill="#FFE62E"/>
</svg>
