<svg width="60" height="60" viewBox="0 0 60 60" fill="none" xmlns="http://www.w3.org/2000/svg">
<path d="M30 60C46.5685 60 60 46.5685 60 30C60 13.4315 46.5685 0 30 0C13.4315 0 0 13.4315 0 30C0 46.5685 13.4315 60 30 60Z" fill="#699635"/>
<path d="M29.7012 24.7C29.6012 23.8 30.1012 22.9 31.0012 23.1C31.7012 23.2 32.5012 23.9 32.1012 24.6C31.5012 25.7 29.9012 25.7 28.9012 26.3C29.0012 26.9 31.9012 26.2 32.4012 26.2C32.9012 26.2 33.4012 26.4 33.1012 27C32.8012 27.6 31.8012 27.6 31.2012 27.7C30.6012 27.8 29.6012 27.8 29.3012 28.3C28.7012 29.1 29.9012 29.2 30.3012 29.4C31.3012 29.9 29.7012 30.4 29.3012 30.3C27.8012 30 27.5012 29.2 26.6012 28.2C25.7012 29.4 22.9012 32.1 22.3012 29.3C21.3012 29.7 20.3012 30.2 19.2012 30.3C19.7012 29.6 20.7012 29.3 21.5012 28.9C22.5012 28.4 22.5012 27.5 23.1012 26.7C23.3012 27 23.1012 27.4 23.2012 27.8C24.0012 27.4 25.0012 26.6 24.6012 25.6C24.6012 25.5 23.4012 23.1 24.4012 23.5C25.3012 23.9 25.0012 24.8 25.2012 25.5C25.5012 26.8 24.9012 27.5 23.9012 28.3C23.5012 28.6 22.4012 29.8 23.7012 29.8C24.6012 29.8 25.4012 28.8 25.9012 28.2C26.5012 27.4 26.3012 26.6 25.9012 25.7C25.6012 25 24.9012 23.5 25.8012 23C26.5012 24.1 26.8012 25.4 27.1012 26.7C27.3012 27.8 27.5012 28.9 28.7012 29.2C28.6012 28.4 29.1012 27.8 29.8012 27.5C29.3012 27.1 26.5012 27.6 27.6012 26.1C27.7012 25.4 29.7012 25.1 29.7012 24.7Z" fill="white"/>
<path d="M14.4006 28.3987C14.9006 29.7987 16.6006 29.2987 17.6006 28.8987C19.2006 28.0987 19.2006 26.8987 19.2006 25.2987C18.6006 25.5987 18.7006 26.6987 18.5006 27.1987C18.1006 27.9987 16.8006 28.6987 15.9006 28.5987C14.6006 28.3987 14.0006 26.1987 15.0006 25.3987C15.2006 26.0987 14.7006 27.5987 15.9006 27.6987C16.8006 27.7987 18.6006 26.6987 18.3006 25.6987C17.1006 26.0987 16.4006 25.6987 16.8006 24.3987C17.1006 23.1987 18.3006 24.0987 18.8006 24.6987C20.7006 23.5987 17.3006 19.3987 19.3006 18.2987C19.7006 18.9987 20.3006 19.8987 19.8006 20.5987C19.2006 21.3987 19.8006 23.0987 19.9006 23.9987C20.9006 23.0987 20.1006 24.6987 20.9006 24.7987C21.4006 24.8987 21.6006 23.5987 21.9006 23.5987C22.0006 23.8987 22.0006 24.7987 22.5006 24.6987C23.1006 24.4987 22.4006 23.6987 23.0006 23.4987C23.2006 23.9987 23.1006 25.4987 22.4006 25.3987C21.8006 25.2987 21.9006 24.8987 21.2006 25.2987C20.6006 25.5987 20.4006 25.2987 20.0006 24.9987C19.9006 26.1987 20.3006 27.4987 19.6006 28.5987C19.0006 29.4987 17.8006 29.9987 16.8006 30.1987C14.2006 30.6987 13.5006 28.0987 14.4006 25.9987C14.6006 26.5987 14.2006 27.6987 14.4006 28.3987ZM38.8006 28.8987C39.3006 30.1987 40.3006 27.4987 40.6006 27.0987C41.4006 25.8987 42.6006 28.9987 43.1006 26.9987C43.4006 25.6987 43.0006 24.3987 42.9006 23.0987C42.8006 22.1987 42.5006 21.3987 41.9006 20.6987C41.3006 19.8987 40.7006 19.1987 41.0006 18.1987C42.0006 18.5987 42.0006 19.3987 42.5006 20.1987C42.6006 19.5987 42.2006 18.7987 42.6006 18.2987C43.1006 17.5987 43.5006 19.4987 43.5006 19.6987C43.6006 20.1987 43.1006 20.3987 43.4006 21.1987C43.6006 21.7987 44.0006 22.3987 44.4006 22.8987C44.3006 22.2987 43.4006 18.1987 44.4006 18.1987C44.7006 18.1987 45.0006 19.3987 45.0006 19.5987C45.2006 20.1987 44.8006 20.6987 44.8006 21.3987C44.7006 22.5987 44.9006 23.9987 45.7006 24.8987C46.1006 25.3987 47.6006 27.1987 46.8006 27.7987C46.2006 27.0987 45.8006 26.2987 45.3006 25.5987C45.3006 26.3987 45.5006 27.2987 45.1006 27.8987C44.7006 27.6987 44.9006 26.3987 44.9006 26.0987C44.9006 24.9987 44.2006 24.0987 43.6006 23.1987C43.4006 24.6987 44.6006 27.4987 43.2006 28.5987C42.3006 29.3987 41.1006 27.5987 40.8006 28.2987C40.5006 28.7987 39.8006 30.5987 39.0006 30.3987C38.0006 30.1987 37.3006 27.3987 38.4006 27.0987C38.5006 27.5987 38.5006 28.2987 38.8006 28.8987Z" fill="white"/>
<path d="M17.4009 22.0994C18.1009 22.1994 17.4009 19.7994 17.4009 19.3994C17.5009 18.9994 17.8009 18.7994 18.0009 19.1994C18.3009 19.7994 18.3009 20.4994 18.4009 21.0994C18.4009 21.5994 18.5009 22.1994 18.1009 22.5994C17.5009 23.1994 16.7009 22.8994 16.4009 22.0994C15.0009 23.2994 16.8009 25.3994 15.6009 26.5994C15.4009 25.4994 15.6009 24.2994 15.2009 23.2994C15.0009 22.7994 14.1009 22.9994 14.0009 22.0994C14.0009 21.6994 14.3009 20.5994 13.9009 20.2994C13.7009 20.6994 13.5009 23.7994 12.5009 22.8994C11.7009 22.2994 11.9009 20.2994 12.2009 19.4994C12.8009 19.7994 12.1009 21.9994 12.9009 22.0994C13.3009 22.1994 13.4009 20.4994 13.5009 20.1994C13.8009 19.6994 14.8009 18.2994 14.6009 19.6994C14.5009 20.2994 14.0009 22.1994 15.2009 22.0994C15.1009 21.0994 15.0009 20.0994 14.8009 19.0994C14.7009 18.5994 15.0009 17.5994 15.4009 18.4994C15.7009 19.0994 15.5009 19.3994 15.4009 19.9994C15.3009 20.6994 15.6009 21.3994 15.7009 21.9994C16.3009 21.4994 15.5009 19.5994 16.0009 18.7994C17.2009 19.4994 15.9009 21.8994 17.4009 22.0994ZM30.3009 22.2994C29.8009 22.9994 28.9009 22.3994 28.5009 21.8994C28.0009 22.4994 27.0009 23.4994 26.2009 22.6994C25.6009 22.0994 26.3009 20.9994 25.8009 20.4994C25.5009 20.9994 25.0009 23.3994 24.1009 22.2994C23.6009 21.6994 22.9009 19.5994 24.0009 19.0994C23.9009 19.8994 23.7009 20.7994 24.2009 21.4994C24.7009 22.1994 25.2009 20.3994 25.4009 19.9994C25.7009 19.2994 26.7009 18.0994 26.5009 19.5994C26.4009 20.1994 26.2009 21.5994 26.8009 21.9994C27.2009 22.2994 27.7009 21.7994 27.9009 21.4994C28.3009 20.9994 28.1009 20.1994 28.0009 19.5994C27.9009 19.0994 27.7009 18.4994 28.0009 17.9994C28.4009 17.3994 28.7009 18.7994 28.7009 19.0994C28.7009 19.3994 29.1009 22.4994 29.8009 21.4994C30.5009 20.5994 28.6009 18.5994 29.9009 18.0994C30.4009 17.8994 31.3009 19.8994 30.3009 19.2994C30.6009 20.1994 31.0009 21.4994 30.3009 22.2994ZM34.1009 23.4994C34.2009 24.7994 35.3009 28.3994 33.8009 29.1994C33.6009 28.7994 33.8009 28.1994 33.9009 27.6994C34.0009 26.7994 33.8009 25.8994 33.7009 25.0994C33.5009 23.1994 33.3009 21.7994 32.0009 20.2994C31.7009 19.8994 31.2009 19.5994 31.1009 18.9994C31.1009 18.7994 31.0009 17.8994 31.4009 18.0994C31.7009 18.1994 33.4009 19.6994 32.5009 19.6994C32.6009 19.8994 33.0009 20.6994 33.2009 20.6994C33.2009 20.1994 32.6009 18.6994 33.2009 18.3994C33.7009 18.0994 34.3009 19.9994 34.1009 20.3994C33.9009 20.8994 33.9009 21.1994 34.1009 21.8994C34.3009 22.6994 34.8009 23.3994 35.2009 24.0994C35.8009 25.0994 37.0009 26.4994 36.7009 27.7994C36.1009 27.4994 35.7009 26.0994 35.4009 25.4994C35.2009 24.9994 35.0009 24.4994 34.7009 24.0994C34.6009 23.9994 34.0009 23.1994 34.1009 23.6994V23.4994ZM48.0009 25.3994C48.1009 27.4994 47.4009 30.1994 44.8009 30.1994C44.8009 29.5994 46.1009 28.9994 46.5009 28.6994C47.5009 27.8994 47.4009 26.3994 47.3009 25.2994C47.2009 23.7994 47.1009 22.2994 46.8009 20.7994C46.7009 19.8994 46.2009 18.5994 47.0009 17.9994C47.5009 18.3994 48.2009 19.4994 47.9009 19.8994C47.4009 20.4994 47.9009 24.9994 48.0009 25.3994Z" fill="white"/>
<path d="M35.2008 29.8995C37.8008 28.3995 37.0008 25.1995 36.8008 22.6995C36.7008 21.9995 36.7008 21.2995 36.6008 20.5995C36.6008 20.0995 36.2008 19.3995 36.4008 18.8995C36.9008 17.5995 37.3008 18.7995 37.4008 19.5995C37.5008 20.0995 37.1008 20.1995 37.2008 20.5995C37.3008 21.3995 37.3008 22.1995 37.4008 22.9995C37.5008 24.2995 37.7008 25.5995 37.6008 26.7995C37.4008 28.6995 36.4008 30.7995 34.1008 30.3995C34.2008 30.1995 34.9008 30.0995 35.2008 29.8995ZM39.4008 24.8995C39.5008 25.8995 39.9008 27.6995 39.4008 28.5995C39.0008 29.1995 39.0008 28.1995 38.9008 28.0995C38.8008 27.2995 38.8008 26.4995 38.8008 25.5995C38.6008 23.3995 37.9008 21.1995 37.9008 19.0995C37.9008 16.3995 40.2008 20.5995 38.9008 20.3995C39.0008 21.8995 39.2008 23.3995 39.4008 24.8995ZM23.1008 19.7995C23.3008 20.2995 20.8008 21.5995 20.5008 21.5995C20.4008 21.0995 21.6008 20.3995 21.9008 20.1995C22.2008 19.8995 22.4008 19.8995 22.3008 19.4995C22.1008 19.0995 22.2008 18.3995 22.7008 18.1995C23.7008 17.8995 23.0008 19.3995 23.1008 19.7995ZM12.8008 28.6995C12.8008 29.4995 13.1008 29.0995 13.5008 28.8995C13.7008 29.2995 13.2008 30.3995 12.7008 29.8995C12.0008 29.1995 12.6008 27.5995 12.9008 26.8995C13.1008 27.3995 12.7008 28.1995 12.8008 28.6995ZM41.0008 22.4995C41.1008 22.0995 40.8008 21.6995 41.1008 21.2995C41.5008 20.7995 41.9008 21.3995 41.7008 21.5995C41.5008 21.7995 41.2008 21.3995 41.2008 21.9995C41.2008 22.2995 41.4008 22.8995 41.1008 23.1995C40.9008 23.0995 40.0008 21.7995 40.1008 21.5995C40.5008 21.1995 40.9008 22.3995 41.0008 22.4995ZM14.9008 24.1995C14.7008 24.5995 12.4008 25.8995 12.3008 25.5995C12.3008 25.2995 15.2008 23.5995 14.9008 24.1995ZM31.9008 29.2995C31.6008 30.1995 32.9008 29.3995 33.2008 29.2995C32.8008 29.9995 31.4008 30.5995 31.6008 29.2995C31.5008 29.2995 31.3008 29.3995 31.2008 29.3995C31.0008 29.1995 32.2008 28.3995 31.9008 29.2995ZM42.8008 28.9995C43.1008 28.9995 43.6008 29.8995 43.3008 30.0995C43.1008 30.2995 42.2008 30.3995 42.7008 29.9995C43.3008 29.3995 42.8008 28.9995 42.8008 28.9995ZM28.7008 23.8995C28.8008 23.6995 28.8008 23.3995 28.9008 23.1995C29.9008 23.9995 27.3008 25.2995 27.8008 23.3995C28.0008 23.5995 28.0008 23.8995 28.2008 23.9995C28.2008 23.7995 28.3008 23.4995 28.3008 23.2995C28.5008 23.4995 28.5008 23.7995 28.7008 23.8995ZM40.4008 25.1995C40.1008 24.7995 41.9008 23.6995 42.2008 23.4995C42.4008 23.7995 41.0008 24.8995 40.4008 25.1995ZM46.0008 21.1995C45.8008 20.5995 45.2008 19.3995 45.8008 18.8995C46.2008 19.1995 46.4008 20.6995 46.0008 21.1995ZM35.1008 19.1995C35.0008 18.9995 34.7008 18.7995 34.7008 18.4995C34.8008 18.0995 35.0008 18.1995 35.2008 18.3995C35.5008 18.7995 35.7008 19.8995 35.2008 20.1995C35.2008 19.8995 35.3008 19.4995 35.1008 19.1995ZM22.9008 21.8995C22.9008 22.4995 21.9008 23.0995 21.8008 22.2995C21.7008 21.9995 22.2008 20.8995 22.4008 21.1995C22.0008 22.0995 22.0008 22.3995 22.9008 21.8995Z" fill="white"/>
<path d="M35.4004 20.7986C35.8004 21.7986 35.6004 20.8986 36.0004 20.6986C36.7004 21.9986 34.5004 21.6986 35.0004 20.8986C35.1004 20.9986 35.2004 21.1986 35.2004 21.2986C35.3004 21.1986 35.3004 20.9986 35.4004 20.7986ZM41.8004 25.3986C41.3004 24.9986 41.9004 24.4986 42.2004 24.9986C42.4004 25.2986 42.4004 26.0986 42.0004 26.2986C42.0004 25.9986 42.1004 25.5986 41.8004 25.3986ZM21.3004 27.5986C21.3004 27.3986 21.2004 25.8986 21.5004 26.0986C21.9004 26.2986 21.8004 27.3986 21.3004 27.5986ZM17.1004 18.1986C17.2004 18.4986 17.3004 18.8986 17.5004 18.3986C18.3004 19.2986 15.5004 18.9986 16.5004 18.0986C16.5004 18.1986 16.7004 18.7986 17.1004 18.1986ZM27.3004 20.3986C27.3004 19.9986 26.7004 18.2986 27.2004 18.2986C27.8004 18.3986 27.7004 19.8986 27.3004 20.3986ZM13.3004 19.4986C13.0004 19.3986 13.5004 18.8986 13.3004 18.4986C13.1004 18.5986 12.9004 18.2986 13.1004 18.0986C13.9004 17.4986 13.6004 19.4986 13.3004 19.4986ZM39.2004 39.7986L38.8004 38.5986L38.4004 39.7986H16.5004C16.5004 39.7986 16.7004 41.5986 18.9004 41.5986H38.3004V42.9986H43.6004V39.7986H39.2004ZM42.6004 42.1986H39.0004V41.1986H42.6004V42.1986Z" fill="white"/>
</svg>
