<svg width="60" height="60" viewBox="0 0 60 60" fill="none" xmlns="http://www.w3.org/2000/svg">
<path d="M30 60C46.5685 60 60 46.5685 60 30C60 13.4315 46.5685 0 30 0C13.4315 0 0 13.4315 0 30C0 46.5685 13.4315 60 30 60Z" fill="#ED4C5C"/>
<path d="M39.3 37L39.4 31.6L34 30L39.4 28.4L39.3 23L42.6 27.3L48 25.7L44.7 30L48 34.3L42.6 32.7L39.3 37Z" fill="white"/>
<path d="M31.2 42C24.6 42 19.3 36.6 19.3 30C19.3 23.4 24.6 18 31.2 18C33.7 18 36 18.8 38 20.1C35.3 17 31.3 15 26.8 15C18.6 15 12 21.7 12 30C12 38.3 18.6 45 26.8 45C31.3 45 35.3 43 38 39.9C36.1 41.2 33.8 42 31.2 42Z" fill="white"/>
</svg>
