<svg width="60" height="60" viewBox="0 0 60 60" fill="none" xmlns="http://www.w3.org/2000/svg">
<path d="M19.9992 58.3V44.5L9.69922 52.1C12.5992 54.8 16.0992 56.9 19.9992 58.3ZM39.9992 58.3C43.8992 56.9 47.3992 54.8 50.2992 52.1L39.9992 44.4V58.3ZM1.69922 40C1.99922 41 2.39922 41.9 2.89922 42.9L6.79922 40H1.69922ZM53.1992 40L57.0992 42.9C57.4992 42 57.8992 41 58.2992 40H53.1992Z" fill="#2A5F9E"/>
<path d="M21.4996 36H0.599609C0.899609 37.4 1.29961 38.7 1.69961 40H6.79961L2.89961 42.9C3.69961 44.6 4.59961 46.1 5.69961 47.6L15.9996 40H19.9996V42L8.29961 50.6L9.69961 52L19.9996 44.5V58.3C21.2996 58.8 22.5996 59.1 23.9996 59.4V36H21.4996ZM59.3996 36H35.9996V59.4C37.3996 59.1 38.6996 58.7 39.9996 58.3V44.5L50.2996 52C51.6996 50.7 52.8996 49.3 54.0996 47.8L43.3996 40H50.1996L56.2996 44.5C56.5996 44 56.8996 43.4 57.0996 42.9L53.1996 40H58.2996C58.6996 38.7 59.0996 37.4 59.3996 36Z" fill="white"/>
<path d="M5.69922 47.6C6.49922 48.7 7.29922 49.7 8.19922 50.7L19.9992 42.1V40.1H15.9992L5.69922 47.6ZM43.4992 40L54.1992 47.8C54.5992 47.3 54.8992 46.8 55.2992 46.3C55.3992 46.2 55.3992 46.1 55.4992 46.1C55.7992 45.6 56.1992 45 56.4992 44.5L50.1992 40H43.4992Z" fill="#ED4C5C"/>
<path d="M39.9992 1.69922V15.4992L50.2992 7.89922C47.3992 5.19922 43.8992 3.09922 39.9992 1.69922ZM19.9992 1.69922C16.0992 3.09922 12.5992 5.19922 9.69922 7.89922L19.9992 15.5992V1.69922ZM58.2992 19.9992C57.9992 18.9992 57.5992 18.0992 57.0992 17.0992L53.1992 19.9992H58.2992ZM6.79922 19.9992L2.89922 17.0992C2.49922 18.0992 2.09922 18.9992 1.69922 19.9992H6.79922Z" fill="#2A5F9E"/>
<path d="M38.4996 23.9996H59.2996C58.9996 22.5996 58.5996 21.2996 58.1996 19.9996H53.0996L56.9996 17.0996C56.1996 15.3996 55.2996 13.8996 54.1996 12.3996L43.9996 19.9996H39.9996V17.9996L51.6996 9.39961L50.2996 7.99961L39.9996 15.4996V1.69961C38.6996 1.19961 37.3996 0.899609 35.9996 0.599609V23.9996H38.4996ZM0.599609 23.9996H23.9996V0.599609C22.5996 0.899609 21.2996 1.29961 19.9996 1.69961V15.4996L9.69961 7.99961C8.29961 9.29961 7.09961 10.6996 5.89961 12.1996L16.5996 19.9996H9.79961L3.69961 15.4996C3.39961 15.9996 3.09961 16.5996 2.89961 17.0996L6.79961 19.9996H1.69961C1.29961 21.2996 0.899609 22.5996 0.599609 23.9996Z" fill="white"/>
<path d="M54.2996 12.4008C53.4996 11.3008 52.6996 10.3008 51.7996 9.30078L39.9996 17.9008V19.9008H43.9996L54.2996 12.4008ZM16.4996 20.0008L5.89961 12.2008C5.49961 12.7008 5.19961 13.2008 4.79961 13.7008C4.69961 13.8008 4.69961 13.9008 4.59961 13.9008C4.29961 14.4008 3.89961 15.0008 3.59961 15.5008L9.69961 20.0008H16.4996Z" fill="#ED4C5C"/>
<path d="M59.4 24H36V0.6C34.1 0.2 32.1 0 30 0C27.9 0 25.9 0.2 24 0.6V24H0.6C0.2 25.9 0 27.9 0 30C0 32.1 0.2 34.1 0.6 36H24V59.4C25.9 59.8 27.9 60 30 60C32.1 60 34.1 59.8 36 59.4V36H59.4C59.8 34.1 60 32.1 60 30C60 27.9 59.8 25.9 59.4 24Z" fill="#ED4C5C"/>
</svg>
