<?xml version="1.0" encoding="UTF-8"?>
<svg version="1.1" viewBox="0 0 1599 1066" width="1599" height="1066" xmlns="http://www.w3.org/2000/svg">
<path transform="translate(0)" d="m0 0h1599v1066h-1599z" fill="#DB052A"/>
<path transform="translate(1162,89)" d="m0 0 2 1-8 27-5 12-7 10-9 10-12 12-7 8-19 19-7 8-21 21-7 8-20 20-7 8-10 10-6 2-7-4-4-2h-2l-2 4-12 13-5 7 18 18 9 11 10 13 10 15 14 25 12 29 8 27 4 20 3 25v43l-4 31-6 24-7 21-10 23-11 21-5 8-2 7 4 5 15 10 1 5 4 7 13 2 7 7 10 4 5 10 11 7 1 3 8 5 3 4 2 11 6 5 3 8 1 5v11l-4 9-5 4-2-1v-8l-3-7-3-2 1 13v14l-5 12-6 7-3-1-2-12-4-6-5-5v14l-3 15-5 9-7 8-9 5 2-12v-7l-3-5-11 1-2 6 42 57 11 16 1 2v9l-8 10-14 14-17 13-12 9-13 11-8 7-25 25-7-1-4-6-11-28-56-140-9-21-5-8-2-1-15-2-3-7-4-12-28 7-22 4-20 2h-32l-28-3-7-1-3 2-1-3-21-5h-10v2l-3-1-4-6-9-3-1 5-6 18-3 2-12 1-8 12-5 8-12 30-43 107-16 40-5 8h-6l-16-16-5-6-8-7-11-9-16-13-14-10-13-12-9-9-5-8v-8l9-14 15-20 13-18 6-8 1-4-8-1h-9l-8 4-6 7-3 8-2 9h-3l-5-11-1-3v-12l4-11 5-8 1-7-16 7-3 4-1 11-1 3-5-2-5-9-1-2v-16l4-8 4-4-1-15 8-16 7-4 13-4 7-6 3-6 10-7 3-6 9-6 4-8 9-6 1-2 7-1-5-6 9-2 4-3-1-2 14-6 7-5 1-2h5l-4-7-10-14-12-20-8-16-9-21-8-26-5-23-3-23v-48l4-28 6-25 8-24 9-20 11-21 14-21 10-13 10-11 7-8 8-8-1-4-9-10-8-10-4-1-8 6-5-1-8-7-8-8-7-8-22-22-7-8-19-19-7-8-22-22-7-8-11-11-9-12-5-11-7-23-1-7h2l9 11 12 13 9 11 12 13 7 8 12 14 12 13 7 8 9 10 7 8 9 10 7 8 9 10 7 8 9 10 4 2-3-6-11-12-7-8-9-11 1-4 4-5-1-5-9-11 1-4 2-2 5 1 9 11 9 2 7 7 6 7 7 1 10 10-1 7 12 14 9 10 9 11 4 4 5-2 18-12 18-10 19-9 25-9 23-6 21-4 23-2h31l28 3 27 6 17 5 25 10 22 11 19 12 10 7 4-2 11-12 9-11 10-11 1-6 1-5 9-9 7-1 7-7 5-6 9-2 11-13 6 1 1 4-10 14 1 5 4 4-1 4-9 11-12 13-7 9 1 3 9-9 7-8 18-20 12-14 12-13 7-8 9-10 9-11 14-15 7-8 12-14 9-10 9-11z"/>
<path transform="translate(783,226)" d="m0 0h34l26 3 24 5 30 10 20 9 21 12 17 12 11 9 10 9 11 10 7 8 12 14 12 17 13 22 11 24 9 27 5 23 3 20 1 15v25l-2 22-5 27-7 24-8 20-9 19-15 24-4 3-9 1-9-1 1-2h2v-2h-7l2-6 4-3-7-1-3 1 1 2-4 2 1 3-4 1-3 4 1 5h-2l4 4 3 2v3l-5-1h-7l-7 1h-1l1 9 4 7v2l-9-1-7-3 4 10-1 1h-8l-4-2h-3-2l4 5 1 5h-7l-6-3-6-5-1 3h-2l5 5 7 3 3 2-7 1-10-4-7-6-5-3-2-4-4-1 4 9 7 8-2 1 2 8v5l-2 1-5-5-5-7 2 9-1 6-4 1-6-4h-8l-5-5-1-5 4-3 6-1-2-4-5-1-3-5-3-2v-2l-4-1 1-2-4-2v-2h-2v10l2 9-1 1 5 5 8 11 1 7 3 5v2h-2l4 7-5-1-7-4h-9v3l1 3-1 2h-8l-2 3-2-3-12-6 7 8 5 6-1 2-5-3-9-8h-4l1 5-5 1 5 3-1 3-8 1-7-2v5h-2l1 8-4-2-7-4v3l-4-2-10-7h-6l1 7-4 2-5-3-1 3-5-2-3-3-4 3-2-4v8l-3 1-2-2-1-6-1 2-4 1-2 4-11-3-5-6h-5-4l-3 3-5 1-2 3-4-1-1-1-1-7-3-2v-2l-6 2-5 1-8 5h-2l1-13 1-2h-3v-3h-2v-5h-3l1-4h-2v-6l1-2h-4l-1-4-4-1 1-7h-6l2-5-1-3 1-3-2-5 5-5h3l2 2h3l2 5 1 2-1 9 4 1 1 4-2 4 2 1-1 2 6-1 1 3-5 5v1l3 1 5-2h3v4h2v3h2v7l7-1 7 1 1 1v5l6-1 2 6 2 1v-4h4v4h3l1-3h5l5 7 3-4 3 2v-3l4-1h2 6 4v-2h5l2 4 1-2h4l1 2 1-2 4-1 2 1-1-5h4v-2h8l-1-6 4 2 3 3 9-3-3-7 6 2 2 1-2-6v-5l3-3 3-1 1-3h12l-3-3v-2l-1-4 5-4-3-6h7v-2l-5-2-8-7 2 4h-3v3l-5-2-1 4 2 5-5 1-5-3 1 5-3-1-1 6h-2l1 4-1 4h-2l1 5-4-2-6-2-2-2-3 1-2 5-5 2-1-1-2 6-3-1-2-2-2 3-5-1h-3l-1 2h-2v-3h-2v-3l-4 2-6 2h-3v-3l-5-1-1 2-3-1-1-3-2-1-1 2-2-4-2 3-3-1-3 4h-4l1-6-4 1 1-3-2-1v-2l-6 4h-2v-2l-2-1 3-3v-3l-3 1-5-1h-3l-2-3-5-4-3-7-2-1-2-4 1-4 1-2-2-2h2v-5l-1-2 3-3v-4l-3-1-11 8h-2v-2l-4 1-4-2 24-24-3-2 1-3-2-2 3-3v-2h2l-1-3 5-5 1-8 1-4 3-6-1-3 1-5-2-1-1-5 3-3-3-3v-3l2-1-2-5 4-8h-2l-1-10-1-5h3l-3-6-3-2-2-6-4-5 1-3 8 1 3 2 10 1-4-1v-2h-5l1-2-16-2-2-2v-4l5-1 12 4 2 2 6 1v2h4l1 3 8-1 1-1-4-1-6-2-2-6-7-1-3 2-6-1-8-3-1-4 2-5 5-1 4 5 3 2v2h5l-1-3 5 2 10 5 2-1 3 3h4l-1-3-3-1v-2h-2l-1-2h-2v-2l-4-1h2l-2-7 1-2h-3l-3-9-1-4h2v-2h3v-2l6 1 5 1 6-1 3 4-1 4-2 4v6l4 7 12 7 4 6 1 9-4 8-3 3-8 2-14 1-11 4-5 3 2 19 2 18v13l-3 9-1 1-2 12-5 12v17 3l3 4-1 2 4 2 10 6 6 2 8 1 19 1 14 3h25l-7-1-2-3 19-1 8-4 6-7 4-10 1-4 1-16h2v-9l3-5 16-26 1-3v-11l-4-15-5-10-5-3h-40l-17-4-5-3-5-6v-8l5-6 16-8 8-5 4-5-6-2-8 1-7 2h-13l-15-4-6-4 1-4 9-14 5-7 2-6h2l1-4 3-10-2-7-2-9-1-3-5-2v-2l-5-2v-2h-2v-3l-4-1-2-3-3-1-1-2-6 3-5-1v-2l-4 2-2-1-1 2-2-1h-12l-4-2-2 1 6 2v3l15 2 11 2 8 6 11 4 2 5-1 7h-3l-2 2-3-4v-2h-2v-3h-3v-3h-2v-2l-3-1v-2l-5 1-3-1-17 3-7-1-7-6-2-2-10-1-2-1 2 8-5-5-11-16 1-6 5-5 4-5 9-1 1-3-2-1 6-9 10-6 13-5 9-1 7 3 4 4 1 3 4 2v3l5 1v2l-2 1 2 1v2l5-1-1-5-3-2v-4l-2-1v-4l-1-2-5-2 3-3 17-10 12-4 19-2 8-1h16l21 3 26 6 6 3-5 5 9-1v-2l10-2h18l18 3 12 6 3 3 1 3 3 2v3l11 5-1 2 2 1v2l-6 2 2 2-5 1 10 4 4 3-8 4-6 2v1l-8 1 12 5 3 3v3l-3 1v3l-4-1v2l7 1 20 10 2-1-3-3v-4l-3-13v-8l8 1 2 2-2 1 3 1 1 6-2 1 2 4v3h2v2l7-1v-2l-5-2 4-5-4 1 1-3 6-4-5-1 3-3 5-3h-4l-1-4-3 1-2-1 4-5-8 4-2-1 4-5 10-6 11-4h4l-2 6-1 2h3v9l7-2 3 3-1 3-11 5h-2v2l-3 1 6 2-1 6-2 6-6 5-1 2 4 1v2l-3 2-6 2-8 1-2 2 13 3 1 3h2l-1 3 2 1v7l-2 2 1 6h-2v2l3 1-1 2 5 2v3l-2 2h-8l1 7h-2l1 2v13h-5l1 6v3l-1 3-2-1-1 6-3-1-1 3h-6l-1 3-4 5h-3l-1 3-2-2-9-1-3-1 7 11 8 24 2-2v-5h2l1-6 7-4 1-2h2l-1-5h7l2-6 4 2h1l1-2 5 6 3 1 5-12-1-9-1-3 5 2 3 3 1 7 2 1h-4l1 5h-3l-2-1 2 4 2 10 6 5 1 4 5 2 6 9 4 5 3 1-9-11v-1l13-2v-2l3-1-11-2v-3l14-7h2v-2h-15v-2l6-4 10-3v-2h-7l-1-2 10-3 1-2h-16l4-4 7-2h4l-1-6 4-4-4 1-17-1-4-2 5-4 3-2-2-2 13-6 1-3-12 1 6-7-16 1v-5l11-6h2v-2h-3l-1-3 2-4-3-1 1-4 1-2-5 2h-4l2-4 1-1-2-1 2-5-3-1 2-7 5-8-17 9-15 6-2-3 18-10 1-2h-2l2-6h-3l3-9 3-7 5-1v-2h-2l2-5 7-5 1-4 8-3-5-4-14-5-4-1h-18l-19 2-16 5-4-1-10-8-13-11-14-9-22-5h-15l-12 2-7-1-22-8-16-3-16-2-27 1-20 6-21 9-6 3-21 1-22 9-8 6-4 4-5-2-13-6-18-4-12-2-10-3h-9l1 7v3l-1 3-1 5 2 2 2 7-2 1 2 4 1 4v5l1 3h5l3 5 5 6 1 3 5 4 3 5 1 2h-3l1 5-1 2-9-1-6-2 4 6v3l-6 1-10-4 5 5-2 1 8 6-4 5 3-2 4 1-4 4-12 6-4 5 9-3h4l-1 5-7 7-1 2 16-12 12-4 5-3 10-1-1 5-2 3v2l-5 4 1 2h4v2l-3 2 6 2-3 3-4 1 1 6 8 1v2l-5 2 2 5-9 4 1 4 2 2-3 2 9 2 1 2-7 2v2l-5 2 2 2v1l6 1v3l4 1v2l-5 5 10-3 11-5-1-5v-2h-5v-2l-2-1 2-3h2v-2l2-1h6v2l9 1-1 10h-2l1 3-3 1-1 5-4 3 1 2 5 1 2 1-1 9-5 8v3l-3 9-6 2-1 4 1 3h11v4l-3 9 7 2-2 8 7-2-2 6-6 7-1 3 4-2h7l-3 5v2l-5 4 1 2h4l-1 6-3 7-5 2-1-3-4-2-1-2-5-1-6 3-9 2-4 1v-3l12-6 3-4 7-2-3-6-2-1 2-6-11 5-6 2-7-1v-3l4-3v-2h3v2l7-2 4-8 8-4 1-1h-6v-4h-2l2-6v-4l-6 1 1-3-4-1v-3l-3 1v-5l12-8 11-10-1-7h-5l-1-3-4 1h-3l-8 4-5-1-9 6-5 2 3-5 3-4-5 1 2-4 2-3-1-3-8 5-4-1 3-3 1-3-5-2 3-5 3-8 8-4 4-5h-9l-5 2-9 1 1-4 4-5v-3l2-4 2-1-1-4-5 1-3 11-2 4-4 5h-2v2h7v2l4 1v7l3 1-3 5-4 2h-3l1 2 6 3v4 2l4 1-1 5-3 5h2l-2 4-4 3-2 4h9l4 1 1 4h3l2 11-11 14-1 1h8l5 2 7 1 1 2-3 8-6 9 12 2-1 5-4 10-2 4 4 1-2 4-5 2h-6l-2-2-10 1-9-2-10-12-10-15-10-17-12-25-11-33-5-25-3-29v-26l3-27 6-29 9-27 12-26 10-17 12-17 9-11 9-10 21-21 14-11 16-11 15-9 25-12 36-12 20-4z" fill="#F9CE00"/>
<path transform="translate(783,226)" d="m0 0h34l26 3 24 5 30 10 20 9 21 12 17 12 11 9 10 9 11 10 7 8 12 14 12 17 13 22 11 24 9 27 5 23 3 20 1 15v25l-2 22-5 27-7 24-8 20-9 19-15 24-4 3-9 1-9-1 1-2h2v-2h-7l2-6 2-2 6-1-5-4-2-3 15 5 12-4-14-1-9-7-8-4-10-4-6-5 2-1 16 7v-2l5-1 3 2 6 1 8 3-5-12-2-2-14-3-9-5 2-1 9 2 6 3 1-4 1-3 5 2 8 5h3v-2l-8-6-6-7 1-5-5-7-1-6 6 4 15 12 3 1-9-11v-1l13-2v-2l3-1-11-2v-3l14-7h2v-2h-15v-2l6-4 10-3v-2h-7l-1-2 10-3 1-2h-16l4-4 7-2h4l-1-6 4-4-4 1-17-1-4-2 5-4 3-2-2-2 13-6 1-3-12 1 6-7-16 1v-5l11-6h2v-2h-3l-1-3 2-4-3-1 1-4 1-2-5 2h-4l2-4 1-1-2-1 2-5-3-1 2-7 5-8-17 9-15 6-2-3 18-10 1-2h-2l2-6h-3l3-9 3-7 5-1v-2h-2l2-5 7-5 1-4 8-3-5-4-14-5-4-1h-18l-19 2-16 5-4-1-10-8-13-11-14-9-22-5h-15l-12 2-7-1-22-8-16-3-16-2-27 1-20 6-21 9-6 3-21 1-22 9-8 6-4 4-5-2-13-6-18-4-12-2-10-3h-9l1 7v3l-1 3-1 5 2 2 2 7-2 1 2 4 1 4v5l1 3h5l3 5 5 6 1 3 5 4 3 5 1 2h-3l1 5-1 2-9-1-6-2 4 6v3l-6 1-10-4 5 5-2 1 8 6-4 5 3-2 4 1-4 4-12 6-4 5 9-3h4l-1 5-7 7-1 2 16-12 12-4 5-3 10-1-1 5-2 3v2l-5 4 1 2h4v2l-3 2 6 2-3 3-4 1 1 6 8 1v2l-5 2 2 5-9 4 1 4 2 2-3 2 9 2 1 2-7 2v2l-5 2 2 2v1l6 1v3l4 1v2l-5 5 10-3 11-5-1-5v-2h-5v-2l-2-1 2-3h2v-2l2-1h6v2l9 1-1 10h-2l1 3-3 1-1 5-4 3 1 2 5 1 2 1-1 9-5 8v3l-3 9-6 2-1 4 1 3h11v4l-3 9 7 2-2 8 7-2-2 6-6 7-1 3 4-2h7l-3 5v2l-5 4 1 2h4l-1 6-3 7-5 2-1-3-4-2-1-2-5-1-6 3-9 2-4 1v-3l12-6 3-4 7-2-3-6-2-1 2-6-11 5-6 2-7-1v-3l4-3v-2h3v2l7-2 4-8 8-4 1-1h-6v-4h-2l2-6v-4l-6 1 1-3-4-1v-3l-3 1v-5l12-8 11-10-1-7h-5l-1-3-4 1h-3l-8 4-5-1-9 6-5 2 3-5 3-4-5 1 2-4 2-3-1-3-8 5-4-1 3-3 1-3-5-2 3-5 3-8 8-4 4-5h-9l-5 2-9 1 1-4 4-5v-3l2-4 2-1-1-4-5 1-3 11-2 4-4 5h-2v2h7v2l4 1v7l3 1-3 5-4 2h-3l1 2 6 3v4 2l4 1-1 5-3 5h2l-2 4-4 3-2 4h9l4 1 1 4h3l2 11-11 14-1 1h8l5 2 7 1 1 2-3 8-6 9 12 2-1 5-4 10-2 4 4 1-2 4-5 2h-6l-2-2-10 1-9-2-10-12-10-15-10-17-12-25-11-33-5-25-3-29v-26l3-27 6-29 9-27 12-26 10-17 12-17 9-11 9-10 21-21 14-11 16-11 15-9 25-12 36-12 20-4z" fill="#DB052A"/>
<path transform="translate(592,668)" d="m0 0h6l2 2v2l2 1 16 1-2 5 4 1v3l6 2-1 6 5 1-1 9 8 1 4-1 3 5-6 3 1 4 6 4 1 6h12l3-1h7l9 6-1 10v2l-6-1-2-1h-8l-5 4-5 11v22l-5 13-3 14-8 6-3 5-8 4-2 2v7l-7 2-4-2 2-5 2-7-2-4-5-3-7-1v3l-8 4v1l12 3 2 3v38l-5-2-7-8-3-11v-13l3-6h-6l-2-7-2 3-5 2-5 10-2 2h-10v-5l5-8 2-1-6-10-6-4-5-1-3 3-6 3-2 5h-2l-2-5-2 3h-7l-3-1v-9l-4-6-8-6-7-2-9-1v-4l1-3-2-5-5-5-1 1 4 7-1 3-4-5-2-1h-12v-7l8-9 4-6 10-6 3-3 7-4 4-9 8-9 9-4 8-2 8-8 5-6 6-4 10-2-2-4 1-4 8-5 12-6 5-2z" fill="#FDD100"/>
<path transform="translate(1015,642)" d="m0 0 9 2 1 1 2 13 3 5 11 1 4 2v5l8 6 19 4 6 7 6 12v3h10l9 7 5 7v5l-4 2-2 7-1 12-2 4-11 3-3 1-2 8-2 3-14-1 2 1v2l-9 5h-5v11l1 5h-2l-2-6-1-9-4-6-10-2-1 7-1 1 5-1h3l3 5 1 1-1 18h-2l-4-11-4-4-3-1h-7l-7 8-2 7 1 11-5-2-6-1 2 5-2 3h11l2 1v2l-6 2h-9l-5-5-10-3-8-7-4-5-8-5v-8l-3-5-9-7-1-6 8 1 4 2 4 4 1 3 1 14 3 3 10 1 4 5 2 1v6l10-1-9-12-3-1-1-4-3-2v-2l-6-2-2-3v-11l2-4h-8l-4-9-4-5 1-5-6-5-4-1 2-7v-5l-5-4-2-6-5 6 3 9-1 19h5l5 3-1 6-1 2h-2l-5-8-3-3-2-9-4-6-4-2h-6l-4 1-1 8-3 4h-2l-4-10 1-9v-13l3-5 1-4 3-1h13l-2 5 5 3v2l11-1 3-1v-2h-2l2-4 5-7h-8l-10-6v-1l10-1 4-3h10 3l4 3 18 3 3 1-1-4-5-2v-2l-6-2 1-4 3-1 5 1v-2l-4-2-3-3v-9l3-3 9-1 6-3-1-3 5-3-4-3z" fill="#FCD000"/>
<path transform="translate(814,479)" d="m0 0h7l7 4 4 3-2 4-12 12 6 1 17-11 3 2-1 5-7 3h-4v3l-8 4-1 2 3 2 1 1 15-5 9-1 1 1v6h-21v2h21l3 7-2 3h-10l-14-3h-3l6 2v2l-6 3 3 1 7-3 4-1 7 3 1 4-8 9-1 3 5-2 4 1 2 3-3 3 3 2v6l-1 3-2 1v2l2 1v6 4 6l-2 1-2 2h-3l1 11-6-4-2 5-1 2h-2l2 4 2 2v3l-2 1-1 2-5-4 6 7v2l-3 1 2 4 5 5-6 7h-2l1 6-3 8-1 2 3 1-1 6 2 1 2 4 1 4 4 2-3 3-5-1-2 1 1 3-5 1 2 4h-3v3l-5-2-1 4 2 5-5 1-5-3 1 5-3-1-1 6h-2l1 4-1 4h-2l1 5-4-2-6-2-2-2-3 1-2 5-5 2-1-1-2 6-3-1-2-2-2 3-5-1h-3l-1 2h-2v-3h-2v-3l-4 2-6 2h-3v-3l-5-1-1 2-3-1-1-3-2-1-1 2-2-4-2 3-3-1-3 4h-4l1-6-4 1 1-3-2-1v-2l-6 4h-2v-2l-2-1 3-3v-3l-3 1-5-1h-3l-2-3-5-4-3-7-2-1-2-4 1-4 1-2-2-2h2v-5l-1-2 3-3v-4l-3-1-11 8h-2v-2l-4 1-4-2 24-24-3-2 1-3-2-2 3-3v-2h2l-1-3 5-5 1-8 1-4 3-6-1-3 1-5-2-1-1-5 3-3-3-3v-3l2-1-2-5 4-8h-2l-1-10-1-5h3l-3-6-3-2-2-6-4-5 1-3 8 1 3 2 10 1-4-1v-2h-5l1-2-16-2-2-2v-4l5-1 12 4 2 2 6 1v2h4l1 3 8-1 1-1-4-1-6-2-2-6-7-1-3 2-6-1-8-3-1-4 2-5 5-1 4 5 3 2v2h5l-1-3 5 2 10 5 2-1 3 3h4l-1-3-3-1v-2h-2l-1-2h-2v-2l-4-1h2l-2-7 1-2h-3l-3-9-1-4h2v-2h3v-2l6 1 5 1 6-1 3 4-1 4-2 4v6l4 7 12 7 4 6 1 9-4 8-3 3-8 2-14 1-11 4-5 3 2 19 2 18v13l-3 9-1 1-2 12-5 12v17 3l3 4-1 2 4 2 10 6 6 2 8 1 19 1 14 3h25l-7-1-2-3 19-1 8-4 6-7 4-10 1-4 1-16h2v-9l3-5 16-26 1-3v-11l-4-15-5-10-5-3h-40l-17-4-5-3-5-6v-8l5-6 16-8 8-5 9-10 4-1 2-4 5-2 6-7z" fill="#FBFAFA"/>
<path transform="translate(784,215)" d="m0 0h30l21 2 23 4 23 6 22 8 29 14 21 13 13 10 13 11 12 11 8 8 9 11 10 12 12 18 9 16 8 16 8 20 8 26 5 25 2 16v50l-4 27-6 26-9 25-10 22-12 21-4 6h-6l1-4 12-20 12-25 9-25 6-24 4-26 1-12v-32l-3-28-6-27-9-27-9-20-10-19-12-18-10-13-13-15-15-15-11-9-13-10-17-11-18-10-20-9-30-10-23-5-24-3h-43l-24 3-23 5-30 10-20 9-20 11-12 8-16 12-14 12-17 17-9 11-12 16-15 25-11 23-9 25-6 24-3 17-2 20v34l3 27 5 23 8 26 10 23 11 21 12 18 9 12-3 2-4-1-10-13-13-21-8-16-8-17-10-31-6-29-2-16v-50l4-27 6-25 7-21 11-25 10-18 8-12 10-14 11-13 11-12 9-9 22-18 21-14 16-9 21-10 22-8 23-6 23-4z" fill="#DC052B"/>
<path transform="translate(790,557)" d="m0 0 4 4 1 9-3 12-3 4h-2l-1 6 5-5 5-13 4-2h7l4 4-1 7-5 16-4 21v3l3-3 1-4 7-5 1 3-6 30-4 10-8 7-5 2h-17l-20-5-8-1h-30l-7-3-5-5-2-4v-12l10-21 3-5 2 1v8l-6 12-1 12 5 3 7 4 1 1h8l3-1h10l2 1 17 1 7-2 7 6h6l4-5 2-3 7-1 2-6 5-3 2-6h-5l-5 8-6 3h-4l-2-17-3-7v-3h-2l2 7 4 13v11l-3 5-4 1-3-4 2-20-4 12-7 2-8-1-5 1-4-2-4 1-3-1 3 6h-5l-1-7-6-4v8l-2 4-4-1-3-5v-14l3-9 2 3 6-9 4-7 3-22 4-8 4-3 9-1 11 3 15 2 3 2-1-7v-8l3-3z" fill="#D7062B"/>
<path transform="translate(932,429)" d="m0 0 6 1 13 7 2 2v3l3 1 4 7v2l-4 2 1 4-1 5 3 4 1 5 2 4-6-2-1 7v6 3h-2l3 4-1 3-4-2 3 9-2 4-2-2-5-9-2 5-2-2-1-4-2 1-2-1-1 3-3-4-17 1-12 2 3 2h-5v2l5 1 4 2 3 5-6-2-9-5 1-3h-11l-14 2v2l-4 3 3 2v2l-9-1 1 3 6 1v1l5 1 33 1-6-5 3-1 10 7 19 3 1 2-26-2 1 1 6 5h-3l-13-6-19-2h-9l-3 2-7 1 1 4-2 4h13l3-5 4-1 1 4h2l1 3 13 3v1h-12l-1 4-6-3 6 8 1 7-2 4-4-2 4 8-1 4-1 2h-2l-6-10v-2l-1-2 4 1-1-7 4 3 2-2-8-9v-3l2-1v-2h-11l-9-1v4l-4 2 2 3-10 4-2 2h-4l1-4 7-8-1-4-7-2-8 3-5 1-2-2 6-3h2v-2l-6-1-2-2 9 1 10 2 10 1 1-4-2-5-21-1v-2h21l-1-6-9 1-13 4h-2v2l-4-1h3l-5-5 8-5h3v-3l11-4-1-5-9 5-9 6-6-1v-3l8-7 6-7-4-2-7-4h-7l-8 7-2 3-5 1-1 4-3 2-3-2 2-4 2-3-2-3-1-3 5-2 1-6 10 4-1-4 8 2 1-2 2 1 4-1 8 3v2h5l3 2 10-8 8-6-4-6-2-8-3-2h-9l-1 9-4 2-2-4 1-3-5 1v4l2 3-6 3-4-1 2-2-6-2v-4l-2-2 5-1 3-1 4 1v-2h2l-1-6 5-5 7-2 10 1 8 4 5 2 3 2 10 1 7-2v-3h2v-2l5-3 3 1-1 2 5-1 10-5v2l-19 12-8 5-1 2-9 5-18 14-8 6 3 3 5-2 14-8 4-4-4-4 4-1 9-2 5-2v2l13-4 21-9 1 2-21 10 3 2-5 3-1 3 7 1-4 2-1 1h9l15-2-3 3-12 3-1 2h-2v2h5l-2 2-16 3-7 2v-2l-9 1-9 4-4 5 3 1-1 2 20-3 10-2 1-7 7-2 8 1-3 2-6 1 1 2 7 1 19-1v-2l-6 1v-2l-5-1 1-5 6-5 2 3 3-4-1-4h3l-1-4 4-1-2-4 9 1v-3h4l-2-5h4l-2-4h3l-3-9-5-4 3-1-10-6 3-1z" fill="#010000"/>
<path transform="translate(641,465)" d="m0 0h4l-1 5-2 3v2l-5 4 1 2h4v2l-3 2 6 2-3 3-4 1 1 6 8 1v2l-5 2 2 5-9 4 1 4 2 2-3 2 9 2 1 2-7 2v2l-5 2 2 2v1l6 1v3l4 1v2l-5 5 10-3 11-5-1-5v-2h-5v-2l-2-1 2-3h2v-2l2-1h6v2l9 1-1 10h-2l1 3-3 1-1 5-4 3 1 2 5 1 2 1-1 9-5 8v3l-3 9-6 2-1 4 1 3h11v4l-3 9 7 2-2 8 7-2-2 6-6 7-1 3 4-2h7l-3 5v2l-5 4 1 2h4l-1 6-3 7-5 2-1-3-4-2-1-2-5-1-6 3-9 2-4 1v-3l12-6 3-4 7-2-3-6-2-1 2-6-11 5-6 2-7-1v-3l4-3v-2h3v2l7-2 4-8 8-4 1-1h-6v-4h-2l2-6v-4l-6 1 1-3-4-1v-3l-3 1v-5l12-8 11-10-1-7h-5l-1-3-4 1h-3l-8 4-5-1-9 6-5 2 3-5 3-4-5 1 2-4 2-3-1-3-8 5-4-1 3-3 1-3-5-2 3-5 3-8 8-4 4-5h-9l-5 2-9 1 1-4 4-5v-3l2-4 2-1-1-4-3-2 7-4 2-1-1-1-7-1 3-9-8 7-7 4h-2l1-9 4-5 14-10 10-3 5-3z" fill="#FDD100"/>
<path transform="translate(755,374)" d="m0 0 7 5v-2l6 2 5 5h5l5 1 3-2 7 1h6l9-2 10-4 13-3 4-1-3 9-5 8-4 8-7 6-3 4-4 2-3 1v-2h-3l-1 4-6 1-9 4-6 1h-3l-1-3-4 1-1-3-4-1v-2l-3-1v-2l-4-1-3-4-6-2-5-7h-3l-1-4-3-2-1-9 4 1v-5l6 2v-3l4 2 3 1z" fill="#F8F6F1"/>
<path transform="translate(872,533)" d="m0 0h5v4 3l7 8-1 2h-3l-2-2 1 6 1 2-4-1 1 4 4 6v2h2l1-6-3-6v-2l3-1 1 2 1-3-1-7-6-9 6 2 1 1 1-3h13l1 5 1 11-5 1 3 12 1 1v9l-3 5v6l-5-2-4 2-8 1-4 2-4 8-1 8-1 1-1 12-3-2-2 4-4-1-2-5-2-7-4-7v-5l4 1-1-5 1-2h2l-1-4h5l-2-5v-3l-1-2h5l-4-7h4l-3-5h5v-5l-1-2h4l-2-5h2v-3l4 1-1-4v-2l-4-3v-4z" fill="#F7F6F3"/>
<path transform="translate(668,677)" d="m0 0h3l2 2h3l2 5 1 2-1 9 4 1 1 4-2 4 2 1-1 2 6-1 1 3-5 5v1l3 1 5-2h3v4h2v3h2v7l7-1 7 1 1 1v5l6-1 2 6 2 1v-4h4v4h3l1-3h5l5 7 3-4 3 2v-3l4-1h2 6 4v-2h5l2 4 1-2h4l1 2 1-2h2v2l4 2 1 1v5l-4 2-5-3-1 3-5-2-3-3-4 3-2-4v8l-3 1-2-2-1-6-1 2-4 1-2 4-11-3-5-6h-5-4l-3 3-5 1-2 3-4-1-1-1-1-7-3-2v-2l-6 2-5 1-8 5h-2l1-13 1-2h-3v-3h-2v-5h-3l1-4h-2v-6l1-2h-4l-1-4-4-1 1-7h-6l2-5-1-3 1-3-2-5z" fill="#FED200"/>
<path transform="translate(932,429)" d="m0 0 6 1 13 7 2 2v3l3 1 4 7v2l-4 2 1 4-1 5 3 4 1 5 2 4-6-2-1 7v6 3h-2l3 4-1 3-4-2 3 9-2 4-2-2-5-9-2 5-2-2-1-4-2 1-2-1-1 3-3-4-17 1-12 2 3 2h-5v2l5 1 4 2 3 5-6-2-9-5 1-3h-17l1-2 9-2 1-7 7-2 8 1-3 2-6 1 1 2 7 1 19-1v-2l-6 1v-2l-5-1 1-5 6-5 2 3 3-4-1-4h3l-1-4 4-1-2-4 9 1v-3h4l-2-5h4l-2-4h3l-3-9-5-4 3-1-10-6 3-1z"/>
<path transform="translate(714,607)" d="m0 0 2 1v8l-6 12-1 12 5 3 7 4 1 1h8l3-1h10l2 1 17 1 7-2 7 6h6l4-5 2-3 7-1 2-6 5-3 2-6h-5l-1-2 1-3 5-4 1-4 7-5 1 3-6 30-4 10-8 7-5 2h-17l-20-5-8-1h-30l-7-3-5-5-2-4v-12l10-21z" fill="#fff"/>
<path transform="translate(641,465)" d="m0 0h4l-1 5-2 3v2l-5 4 1 2h4v2l-3 2 6 2-3 3-4 1 1 6 8 1v2l-5 2 2 5-9 4 1 4 2 2-5 2v1l-10 1-5 2-9 1 1-4 4-5v-3l2-4 2-1-1-4-3-2 7-4 2-1-1-1-7-1 3-9-8 7-7 4h-2l1-9 4-5 14-10 10-3 5-3z" fill="#FDD100"/>
<path transform="translate(891,610)" d="m0 0h4l4 4 3 5 3 8v5l4 6v3 3l-4-1-1 3-6-3-2 3-4-1-3-2v4l-5-2v2h-2l1 6h-2l-1 5-2-1v-2l-5-2-2-1v5l-5 5-3-1-4-7 1-3 2-5h3v-5-3l2-5 2-2-5-5 1-3-2-3h2l1-2 4 2 1-1 1-2v-5h2l1 7 5 5 2 1-1-5 5 1-1-3h3l1-3h4z"/>
<path transform="translate(1119,411)" d="m0 0h6l6 2 6-1h9l9 2v4l-14 7-10 4-4 4-12 3-24 4-2 4-2-3-4-20v-5h3v2l28-6z" fill="#FED200"/>
<path transform="translate(1090,450)" d="m0 0 3 2 16-1 19-1 9 3 18 2 7 3-1 3-12 5-13 3-6 4-11 1-23 2-3 3h-2l-2-21v-7z" fill="#FED200"/>
<path transform="translate(939,559)" d="m0 0 4 4 2 5-1 5h2v10h-2l1 6-2 2-1 9-2 3-2 2-3-4v13h-2v4h-3l-2 6-3 1 1 11-3-1-4 9-2-2-1-6h-2l-4-13-5-8-4-10h2l1-2 1 1 2-2 2 5 5-1 2 1v-4h3v-4h3l-1-5h2l1-2v-4l3-1v-7l3 4 4 7-2-7v-6l3-3v-10l2-4h2z"/>
<path transform="translate(916,142)" d="m0 0 3 1 1 11-3 12v13l-10 30 1 5-2 1-22-8-3-2v-2h4l2-8 9-25 5-5 8-15z" fill="#FED200"/>
<path transform="translate(877,131)" d="m0 0h3l2 9-1 19 1 3v10l-6 25v4l2 1v2l-10-1-18-4-1-3 4-2 7-31 4-7 3-5 7-16z" fill="#FED200"/>
<path transform="translate(507,457)" d="m0 0 2 1v13l-1 13-3 1-1-2-6-1-31-2-6-4-17-4-6-3-2-3 11-4 17-2 3-2h39z" fill="#FED200"/>
<path transform="translate(798,122)" d="m0 0 3 1 4 11 2 14 3 5 1 36 2 5-4 1h-21l-3-1 2-5 1-35 4-7 2-15 3-9z" fill="#FED200"/>
<path transform="translate(953,157)" d="m0 0h3l-1 13-4 14 1 5-15 33v6l-5-1-19-9-2-3 5-1 2-6 11-24 9-8 6-10z" fill="#FED200"/>
<path transform="translate(473,417)" d="m0 0 12 1 17 3h10l3-1-1 10-3 16-3 3-2-3-24-5-12-3-6-5-15-5-6-4v-4l3-1 25-1z" fill="#FED200"/>
<path transform="translate(759,124)" d="m0 0 3 3 5 12 3 11 4 7 4 32 3 3-1 3-3 1-24 2 1-4v-9l-3-27 3-7 1-18 2-7z" fill="#FED200"/>
<path transform="translate(470,334)" d="m0 0h8l13 4 13 1 29 13h7l-3 9-8 16h-3l-1-3-32-15-6-8-10-6-8-7z" fill="#FED200"/>
<path transform="translate(643,157)" d="m0 0 5 2 7 8 7 11 6 5 8 16 6 13v2l5 1-1 3-24 11-1-3-1-7-13-27v-11l-4-13z" fill="#FED200"/>
<path transform="translate(719,131)" d="m0 0 4 2 6 12 4 10 4 5 9 35 3 1-1 3-13 3-8 2h-6v-2h2l-3-15-4-18v-7l1-3v-24z" fill="#FED200"/>
<path transform="translate(1119,331)" d="m0 0h9v4l-7 7-11 7-7 8-27 13-3 1-3 5-3-4-8-17-1-1v-5l6 1 28-13 7-1 8-1z" fill="#FED200"/>
<path transform="translate(680,142)" d="m0 0 4 1 7 10 5 10 6 7 8 22 4 10 3 2-1 3-21 7h-5l1-6-10-30v-14l-2-10v-11z" fill="#FED200"/>
<path transform="translate(528,600)" d="m0 0 3 1 11 23v2h-7l-22 11-7 3h-10l-17 5h-7l-1-4 9-8 11-7 3-5 19-10 14-7z" fill="#FED200"/>
<path transform="translate(1059,621)" d="m0 0h2l1 5 22 13 8 5 3 5v2l4 2 10 8 6 8v1h-9l-17-6-10-1-17-10-10-6h-7l2-6 11-19z" fill="#FED200"/>
<path transform="translate(1131,371)" d="m0 0h12l2 1-2 5-21 12-4 5-33 11-4 4-4-10-5-15v-2h9l32-10 3 1h7z" fill="#FED200"/>
<path transform="translate(838,124)" d="m0 0 3 1 2 6 2 22 1 2v13l-2 18v8l2 1v2h-12l-16-2-1-3 3-1 4-34 6-12 5-16z" fill="#FED200"/>
<path transform="translate(516,566)" d="m0 0 3 1 8 24v2l-6-1-30 10-13-1-9 2h-14v-4l8-6 13-7 6-5 13-5 20-7z" fill="#FED200"/>
<path transform="translate(509,530)" d="m0 0 2 1 5 22v5l-10-1-26 5h-6l-5-2h-23l-3-2 2-4 12-6 10-3 4-5 32-6 5-1z" fill="#FED200"/>
<path transform="translate(516,258)" d="m0 0 9 1 11 6 4 3 9 2 14 11 11 9 7 2-3 5-13 16-3 1-2-6-11-9-14-11-5-10-7-7-7-11z" fill="#FED200"/>
<path transform="translate(490,294)" d="m0 0 9 1 14 6 10 1 21 13 8 5h6l-1 5-12 19-2 1-2-5-20-12-11-8-3-6-10-9-7-8z" fill="#FED200"/>
<path transform="translate(1092,486)" d="m0 0h2v2l37 2 7 4 18 4 6 3v3l-7 3-18 2-5 3h-38l-4 2 1-27z" fill="#FED200"/>
<path transform="translate(988,176)" d="m0 0h3l-1 10-7 17v6l-7 12-10 16-1 8-5-2-18-11-1-3 5-1 2-5 14-23 6-5 4-2 7-9z" fill="#FED200"/>
<path transform="translate(1073,589)" d="m0 0 3 3v2l9 3 24 11 5 6 14 9 5 4 1 4h-13l-11-3h-11l-29-12h-7l1-7 8-18z" fill="#FED200"/>
<path transform="translate(1083,556)" d="m0 0 3 1v2l11 3 25 8 7 6 14 7 6 5-1 2-3 1h-9l-8-1h-18l-28-8-6 1 1-8z" fill="#FED200"/>
<path transform="translate(1090,521)" d="m0 0h2v3l14 2 19 3 6 3 3 3 16 5 8 5-1 3-3 1-24 1-4 2-11-1-18-3h-9l-3 1 1-16 3-11z" fill="#FED200"/>
<path transform="translate(506,493)" d="m0 0 2 3 2 24-1 2h-2v-2l-25 1h-14l-8-3-13-1-10-3v-3l8-4 17-4 7-4 36-3z" fill="#FED200"/>
<path transform="translate(608,177)" d="m0 0 5 1 10 10 3 5 9 6 18 28 5 2-4 5-18 11h-3v-6l-14-23-3-5-2-12-5-11-1-3z" fill="#FED200"/>
<path transform="translate(1076,258)" d="m0 0h7l-2 6-11 13-3 5-4 6-9 8-14 11-2 2-1 5-4-2-11-13-4-5v-2l9-4 14-11 11-8 8-2 14-8z" fill="#FED200"/>
<path transform="translate(545,633)" d="m0 0 5 5 11 17v3h-7l-15 10-13 8-9 1-11 5-6 2h-7l2-6 10-10 6-5 4-6 11-8 16-10 2-4z" fill="#FED200"/>
<path transform="translate(455,376)" d="m0 0h12l13 2 8-1 29 9h5l3-1-1 8-7 20-2-1v-3l-11-3-24-8-5-5-17-9-5-5v-2z" fill="#FED200"/>
<path transform="translate(1101,293)" d="m0 0h7l-1 4-7 8-8 7h-2l-2 6-8 7-21 13h-2l-2 6-4-4-11-18v-3h6l19-12 12-6 10-2z" fill="#FED200"/>
<path transform="translate(705,434)" d="m0 0 3 1v3l9-1 5 3 1 1 1 11h3l2-10h3l3 8v2l6 3-1 3-5 3h-2l1 6-3 1-1-2-6-1 1 7-6 1-1 2-8 1-4-3v-2l-9 1-7-13v-3h3l-1-7-9-3-1-5 2-3 6-1 8 7 4 2 1 5 5 2 1 3 6 2-1-6-5-2-4-3-1-5-4-1 2-4z" fill="#FCD000"/>
<path transform="translate(662,588)" d="m0 0h4v3h2l-3 9 7 2-2 8 7-2-2 6-6 7-1 3 4-2h7l-3 5v2l-5 4 1 2h4l-1 6-3 7-5 2-1-3-4-2-1-2-5-1-6 3-9 2-4 1v-3l12-6 3-4 7-2-3-6-2-1 2-6-11 5-6 2-7-1v-3l4-3v-2h3v2l7-2 4-8 8-4 1-1h-6v-4h-2l2-6 1-5 1-1z" fill="#FEFBEB"/>
<path transform="translate(857,532)" d="m0 0h9l6 1-2 2 1 2h-2l6 6-1 5-4-1v3h-2l2 5-3 1 1 3-1 3-4 1 2 4-3 1 3 4v2l-4 1 2 4h-2l2 5-4 1v3h-2v7l-5-2-3-2 1-2h3l-5-6v-6-4l1-6-3-1 1-3h2l-1-3h2l-1-6-3-3 3-3-4-4 9-4-2-2 5-2z" fill="#F7CC00"/>
<path transform="translate(925,701)" d="m0 0h13l-2 5 5 3v2h11l-2 4-3 4 3 9-1 19h5l5 3-1 6-1 2h-2l-5-8-3-3-2-9-4-6-4-2h-6l-4 1-1 8-3 4h-2l-4-10 1-9v-13l3-5 1-4z" fill="#FED200"/>
<path transform="translate(581,719)" d="m0 0h5l-1 3 2 1-4 6-8 3-1 4-9 10-4 2 1 9-2 5-1 7-5 2 5 5 5 4-12 5 5 4 3 3-4 3-13 4-3 2-4-1-1-7v-3l2-7 9-5 1-3 1-4 2-9 3-9 4-10 5-4 1-4 4-5 4-4 4-5z"/>
<path transform="translate(1e3 708)" d="m0 0 6 2 5 6 4 11 8 8 1 10 8 1 7 1-1 13-5-1-1 4-5-1 1 8-7 2-2-2-5-1v5h-3v9h-2l-1 3h-3l-2-5 2-6 2-4-1-2 2-3 10-4 4-2v-6l-5-4-3-8-3-3v-2l-3-1-1-5-5-5-3-4-2-4-1-3 4-1z"/>
<path transform="translate(986,384)" d="m0 0h4l-2 6-1 2h3v9l7-2 3 3-1 3-11 5h-2v2l-3 1 6 2-1 6-2 6-6 5-9 1v-3l1-5-5-2 4-5-4 1 1-3 6-4-5-1 3-3 5-3h-4l-1-4-3 1-2-1 4-5-8 4-2-1 4-5 10-6z" fill="#FEF8DF"/>
<path transform="translate(740,544)" d="m0 0h10l15 2 25 4h18l4 1v2l-8 5-6-1-3-1h-19l-2 4-4 4-2-7 1-2-7-1-1 4-4 4h-2l-2-4v-5l-7-1 1 5-3 5-3-3v-7l-6 1-1 5-1 3-3-1-1-6 1-2-6 1-4-4v-2l11-2z" fill="#fff"/>
<path transform="translate(907,730)" d="m0 0h3l1 5-8 4-19 7-25 7-23 4-21 2h-29v-3l1-3h26l4 2v-2l33-5 25-6 26-9z" fill="#DC052B"/>
<path transform="translate(716,733)" d="m0 0h4l2 6 2 1v-4h4v4h3l1-3h5l5 7 3-4 3 2v-3l4-1h2 6 4v-2h5l2 4 1-2h4l1 2 1-2h2v2l4 2 1 1v5l-4 2-5-3-1 3-5-2-3-3-4 3-2-4v8l-3 1-2-2-1-6-1 2-4 1-2 4-11-3-5-6h-5-4l-3 3-5 1-2 3-4-1-1-1 1-9z" fill="#FED200"/>
<path transform="translate(831,618)" d="m0 0 10 5 6 1-1 3 10 5-1 8-5 6-2 2 1 3-2 1 2 2-4 1v3h-17l1-4-2-1 2-2-2-1 2-9 1-3v-4l5-5 2-3-5-4z"/>
<path transform="translate(549,807)" d="m0 0 8 1 3 4-2 10-4 10v10l3 10-9-2-5-4-4-8-1-4v-14l4-8 5-4z" fill="#fff"/>
<path transform="translate(1e3 583)" d="m0 0 5 2 9 6v2l16 3 1 2-2 1h-13l-3 5 1 6 9 5-1 3-2 1h-16l-9-7-8-4-10-4-6-5 2-1 16 7v-2l5-1 3 2 6 1 8 3-5-12-2-2-14-3-9-5 2-1 9 2 6 3 1-4z"/>
<path transform="translate(551,717)" d="m0 0h4v2h2l-2 4-4 1v3l-9 2-3 4-1 5-3 8v6h-3l1 4-7 2-1 5-9 2-2 6-3 4-9 2 2-9 2-3 9-4 3-4 1-8 3-1 3-6 8-11 8-10z"/>
<path transform="translate(593,805)" d="m0 0 7 1v3l-8 4v1l12 3 2 3v38l-5-2-7-8-3-11v-13l3-6h-6l-1-1v-8z" fill="#fff"/>
<path transform="translate(611,737)" d="m0 0 4 1 2 1-2 5-4 6-5 7-4 7-4 1 1 3-2 3v10l-2 4v2l-3 2v8l-4 2-4 8h-5l1-8-1-4 6-7 3-9-1-5 6-3 1-11 4-4v-5l2-2-1-4 10-7z"/>
<path transform="translate(765,459)" d="m0 0 4 1v4l3 2-1 5-7 1 5 1 2 5-1 7 1 7-1 5-4 2h-11l-9-4v-3l7 1h11l1-1-15-1 1-7 2-4h2l3-9 5-10z" fill="#F3F1EE"/>
<path transform="translate(504,793)" d="m0 0h6l6 4 3 4-2 4-14 7-6 7-5 13h-2l-3-8v-8l3-11 7-9z" fill="#fff"/>
<path transform="translate(950,564)" d="m0 0h2l1 7 2 1-2 7v4l-1 3 2 6 1 11 1 3h-2l1 3h-2l2 7v4l-4-2-7-3-5-9 1-7h1l1-8 2-2v-6h2l-1-2v-6l1-2h-2l2-6v-2z" fill="#FEFDF5"/>
<path transform="translate(1063,692)" d="m0 0 6 4 4 1 6 3 1 5 2 1v3l3 1 2 3v3h3l2 7 4 7 3 4v5l-1-2-4-1-2-2-5-1-3-6-5-5-2-6-4-4-1-4-4-2-2-3-10-3 3-5z"/>
<path transform="translate(647,417)" d="m0 0 2 1 2 8 13 18 3 5-1 4 4 2 2 3-1 4-3 2-8-7v-5h-1l-4 1v2l-6-2 2-4v-3l5-3-2-2-1-4h-6l-2-2v-3l-9 3-3-6 6-3 3-1 1-6 2-1 2 1z" fill="#FED200"/>
<path transform="translate(1067,769)" d="m0 0h5l5 6 2 7v10l-3 10-8 8h-1l-1-15-3-10v-11z" fill="#fff"/>
<path transform="translate(672,622)" d="m0 0h7l-3 5v2l-5 4 1 2h4l-1 6-3 7-5 2-1-3-4-2-1-2-5-1-6 3-9 2-4 1v-3l12-6 3-4 7-2-1-4 5-4z" fill="#FDD100"/>
<path transform="translate(705,434)" d="m0 0 3 1v3l9-1 5 3 1 1 1 11h3l2-10h3l3 8v2l6 3-1 3-3 2-12-1-11-5v-2l-5-2-4-3-1-5-4-1 2-4z" fill="#fff"/>
<path transform="translate(641,465)" d="m0 0h4l-1 5-13 10-7 3-5 3h-2l-7 6-7 4h-2l1-9 4-5 14-10 10-3 5-3z" fill="#FEFAE5"/>
<path transform="translate(930,742)" d="m0 0 9 1 2 2v8l-2 7v9l3 10 1 3-6-2-7-8-4-9-1-5v-7l3-7z" fill="#fff"/>
<path transform="translate(617,373)" d="m0 0 15 5 9 9h-2l1 4-2 2-1 4-10 4h-2v-2h-4l-1-6 1-1-2-1v-2h-7l1-2 4-1-2-2 7-2-11-6 4-1h2z" fill="#fff"/>
<path transform="translate(661,743)" d="m0 0 7 1 5 6 1 3v14l-3 7-5 7h-1l-2-14-6-10-1-3v-7z" fill="#fff"/>
<path transform="translate(876,416)" d="m0 0h5l8 3 1 5-4 4-4 2-1-2-6 4 1 3 2 1v2l6-4 3-5 3-1 2 1-1 4-1 2 4 1-2 3-5 3h-3v2l-7 1 1-2-4-3-3-5-1-3h-12l-7-2 2-2 8-1h11l6-4 2-3-5-1z" fill="#FEFDF8"/>
<path transform="translate(875,416)" d="m0 0 2 2 1 2h2l-2 4-6 4h-15l-7 1h-11l-5 3-3 5-8 1-1-5 9-6 1 1 4-1 5-7h2v2l8-1 2-1h5l2-1 7 1 5-1z"/>
<path transform="translate(662,465)" d="m0 0h4v2l3 2v2h2l2 5v3l5 2 5 5-2 1v5h-2v3l-10-3-5-2-1-4 2-3-6-1 2-8h-5l1-4v-3z" fill="#FED200"/>
<path transform="translate(657,410)" d="m0 0 4 4 10 16 3 6-4 7-1 3-4-2-10-15-4-9v-3h3l-1-4z" fill="#FED200"/>
<path transform="translate(820,372)" d="m0 0 1 2 3-1 9 1-2 2-10 2-2 2h-4l-10 4-13 1-7-1-2 2h-7v-2l-3 1-3-1-2-4-2-1v-6l4 2 2-1 6 3 6 2h8l6-1h2l3-3 3 1 4-2h4z"/>
<path transform="translate(477,772)" d="m0 0 7 1 4 4-1 4-10 7-5 6-3 10-3-1-3-9v-8l4-7 8-6z" fill="#fff"/>
<path transform="translate(715,421)" d="m0 0 8 1 8 6 11 4 2 5-1 7h-3l-2 2-3-4v-2h-2v-3h-3v-3h-2v-2l-3-1v-2l-5 1-3-1-5 1h-7l-5-4v-2l10-2 5 1z" fill="#FED200"/>
<path transform="translate(1092,752)" d="m0 0h7l5 6 2 6v10l-4 8-4 3-2-13-7-9 1-9z" fill="#fff"/>
<path transform="translate(873,518)" d="m0 0h9l8 2 4 5 2 5 2 4-10-1-3-2v-3h-2v-2l-3-1-4 4 1 2-15-1 1-5v-4l7-1z" fill="#FEFDF8"/>
<path transform="translate(837,593)" d="m0 0 4 2 8 9v2h-2v2l6 2v1h-10l8 3-2 2-6-1v2l10 2 2 2h-8l-12-4-7-7v-2l4 2 1-1h3l-3-5-2-2 1-3 2 1 2-5z" fill="#010000"/>
<path transform="translate(1038,700)" d="m0 0 6 5 5 2 1 7 5 4 3 6 5 5 3 5v3l-3 1-6-7 1-4h-5l-1-2-7-3-2-5-5-3-6-2 1-3 3-3z"/>
<path transform="translate(585,691)" d="m0 0 3 1 1 5-11 8-3-1-10 4-11 2-3-3 13-7 11-3 5-1 1-3z"/>
<path transform="translate(1029,789)" d="m0 0 6 1 4 5v13l-5 8-3 1-2-12-3-8 1-6z" fill="#fff"/>
<path transform="translate(1110,727)" d="m0 0 6 1 4 4 2 6v10l-4 4-4-8-8-7-1-4z" fill="#fff"/>
<path transform="translate(997,557)" d="m0 0 6 4 11 9-2 1 4 8-3 2 7 5-3 3-9-7-6-7 1-5-5-7z"/>
<path transform="translate(871,475)" d="m0 0 4 2-4 1h6l-4 2v2l4 1-4 4-14 5-3-1-1-1h-4l1-4 9-6z" fill="#FCD100"/>
<path transform="translate(1007,661)" d="m0 0 10 3 9 5-4 8h-2l3 4-1 4-5-2v-4h-5v-9l-5-4z"/>
<path transform="translate(777,619)" d="m0 0 3 3 3 11v11l-3 5-4 1-3-4 1-10 2-15z" fill="#fff"/>
<path transform="translate(839,500)" d="m0 0m5 0 5 1 2 4-11 4h-2v2l-9 3h-2v2l-4-1h3l-5-5 8-5h3v-3l10-1z" fill="#0E0708"/>
<path transform="translate(790,557)" d="m0 0 4 4 1 9-3 12-3 4h-2l-1-13-1-4v-8l3-3z" fill="#fff"/>
<path transform="translate(830,669)" d="m0 0 7 1 5 2 5 1v3l3 1-1 2h-2v2l8 1v1h-11l-11-2-3-5-2-2-1-4z" fill="#030300"/>
<path transform="translate(841,450)" d="m0 0h7l5 5v7h-4v2h-7l-4-4-1-6z" fill="#fff"/>
<path transform="translate(725,616)" d="m0 0 2 3 4 17-1 8-4 1-3-3-1-3v-14z" fill="#fff"/>
<path transform="translate(715,551)" d="m0 0 5 1 2 2v7l-3 9-1 6-4-4-2-6v-12z" fill="#fff"/>
<path transform="translate(903,511)" d="m0 0 5 1 8 6 19 3 1 2-26-2 1 1 6 5h-3l-13-6-19-2v-2h27l-6-5z"/>
<path transform="translate(686,462)" d="m0 0 4 1 8 14 7 14-1 2-9-10-3-5v-2l-4-2-6-9z" fill="#FED200"/>
<path transform="translate(764,736)" d="m0 0h5l2 4 1-2h4l1 2 1-2h2v2l4 2 1 1v5l-4 2-5-3-1 3-5-2-3-4-1-6h-2z" fill="#FED200"/>
<path transform="translate(1028,210)" d="m0 0 3 1-4 6-12 14-11 14-3 3h-3l1-4 13-15 11-13z" fill="#DC052B"/>
<path transform="translate(569,210)" d="m0 0 4 2 24 28 4 5v3l-4-1-12-14-9-11-7-9z" fill="#DC052B"/>
<path transform="translate(715,421)" d="m0 0 10 4 1 3-6 2-3-1-5 1h-7l-5-4v-2l10-2 5 1z" fill="#FEFBEB"/>
<path transform="translate(659,508)" d="m0 0h7l5 2 1 4-3 4h-12l-2-4v-4z" fill="#FED200"/>
<path transform="translate(689,490)" d="m0 0 4 2 10 10 4 6-5-1-12-7-5-3 2-6z" fill="#fff"/>
<path transform="translate(873,518)" d="m0 0 4 1-5 4h6l-1 4v3 1l-15-1 1-5v-4l7-1z" fill="#FED201"/>
<path transform="translate(618,484)" d="m0 0 1 2-3 7 9 2-4 3-5 3h-2v-2l-12-1 1-3 11-7z" fill="#010100"/>
<path transform="translate(616,481)" d="m0 0h2l-2 6-9 7-6 2 1-9 4-5 4 1v1z" fill="#FED200"/>
<path transform="translate(893,404)" d="m0 0 5 1 1 6-3-1 4 5-1 2-4-1 1 5-4-2-9-6v-1h6l-1-3 5-1z"/>
<path transform="translate(846,582)" d="m0 0 6 4 3 5-5-1 1 1 2 4-4 1 2 1-1 3h-2l-6-9-1-5 5-1z"/>
<path transform="translate(662,492)" d="m0 0 6 1 4 5-3 1v2l-2 2 1 2-6 1-5-3 1-5h2v-3h3z" fill="#FED200"/>
<path transform="translate(594,698)" d="m0 0 6 1 5 2 1 6-4 3h-2v-3h-4v-2l-4 1-1-6z"/>
<path transform="translate(986,384)" d="m0 0h4l-2 5-7 2-6 1-4 4-8 4-2-1 4-5 10-6z" fill="#FED200"/>
<path transform="translate(816,354)" d="m0 0 6 1 3 3-3 4-9-1-1-3-4 3h-5v-3l3-3 3 1z" fill="#030200"/>
<path transform="translate(877,547)" d="m0 0 4 3 2-1 4 2-2 4-4-2 4 8-1 4-1 2h-2l-6-10v-2l-1-2 4 1z" fill="#141007"/>
<path transform="translate(858,415)" d="m0 0 5 2 4-1v2l6-1-2 4h-9l-3-1-1 1h-6l-3 1h-6v-2l6-3z" fill="#FEFCF0"/>
<path transform="translate(547,226)" d="m0 0 4 2 9 9 7 8 9 9 4 1 5-1-3 4h-6l-15-15-14-16z" fill="#DC052B"/>
<path transform="translate(622,529)" d="m0 0h8l-4 8-8 6-4-1 4-6 2-6z" fill="#FEF9E1"/>
<path transform="translate(635,403)" d="m0 0h8v3l-3 3-10 4-2 2h-3v-3l4-4-2-1h2v-2z" fill="#fff"/>
<path transform="translate(1050,226)" d="m0 0 2 1-7 8-15 16-7 7-7-1-2-3 7 1 8-7 12-12 7-8z" fill="#DC052B"/>
<path transform="translate(636,496)" d="m0 0 11 2v2l-3 2h-3v2l-8 2-1-2h-2v-3l-2-1z" fill="#FEFDF4"/>
<path transform="translate(763,388)" d="m0 0h2l2 3 7 1 6 3-5 7-1-3-5-2-8-1-2-6 5 3z" fill="#060001"/>
<path transform="translate(735,662)" d="m0 0 31 5 1 3h-7l-22-4h-11v-2z" fill="#fff"/>
<path transform="translate(835,488)" d="m0 0h8l-4 4-15 10-4-1 7-7z" fill="#fff"/>
<path transform="translate(985,247)" d="m0 0 7 4 9 8-1 4-7-4-10-9z" fill="#DC052B"/>
<path transform="translate(613,247)" d="m0 0 2 1-1 4-10 9-5 2-1-4 10-9z" fill="#DC052B"/>
<path transform="translate(716,733)" d="m0 0h4l1 4-3 6h-3l-2 4h-2l-2-5 1-4z" fill="#FEFCEE"/>
<path transform="translate(729,442)" d="m0 0h3l3 8v2l6 3-1 3-5 2-1-5-4-1-3 1-2-2 2-1z" fill="#FED200"/>
<path transform="translate(675,393)" d="m0 0 1 3 2 1 1 4 2 1-1 2 2 1-1 5h2v-2l2 1-1 4-2 2-4-1 1-4h-2l-1-7-3-2z"/>
<path transform="translate(882,505)" d="m0 0 1 3h2l1 9h-10l-3-2z" fill="#FEFDF9"/>
<path transform="translate(796,414)" d="m0 0h3v7l-10 4h-2l-1-4 2-4z"/>
<path transform="translate(885,426)" d="m0 0 3 1-2 5-4 5-4 1v-2l-3-1 1-2-2-1 5-4 4-1 1 1z"/>
<path transform="translate(634,592)" d="m0 0 3 1-11 12-5 1 1-4 2-2-2-1 10-6z" fill="#FACF00"/>
<path transform="translate(545,797)" d="m0 0h5l2 3-9 5-2 5h-2l-1-7z" fill="#fff"/>
<path transform="translate(647,563)" d="m0 0h4l-1 6-4 4-4-2h-5v-2l2-1v-3l5-1h2z" fill="#FACF00"/>
<path transform="translate(950,619)" d="m0 0h2l6 7 6 4-1 5-4-2-6-5-3-4z"/>
<path transform="translate(1025,201)" d="m0 0 5 1 13 11-1 2-4-1-11-9z" fill="#DC052B"/>
<path transform="translate(674,637)" d="m0 0 2 2-2 3-2 6-5 2-2-4 1-4 5-4z" fill="#FEF0AD"/>
<path transform="translate(570,201)" d="m0 0h4l-2 4-12 10h-3l1-4z" fill="#DC052B"/>
<path transform="translate(907,540)" d="m0 0h7l8 7 2 5-10-5-7-6z"/>
<path transform="translate(693,472)" d="m0 0h2l10 19-1 2-9-10-3-6h3z" fill="#fff"/>
<path transform="translate(705,434)" d="m0 0 3 1v3l3 1-3 5-1 4-2-1-1-5-4-1 2-4z" fill="#EEC500"/>
<path transform="translate(661,569)" d="m0 0 3 2-1 7-1 1h-7l-1-4z" fill="#FEFEFB"/>
<path transform="translate(844,500)" d="m0 0 5 1 2 4-7 3-4-1h3v-2l-5-1 1-2z" fill="#fff"/>
<path transform="translate(858,454)" d="m0 0 4 1 5 6-5 2-3-1-1 3-2-4 1-4z" fill="#FED200"/>
<path transform="translate(778,738)" d="m0 0h2v2l4 2 1 1v5l-4-1-6-3 2-4z" fill="#FEFBED"/>
<path transform="translate(692,487)" d="m0 0 5 1 5 5 1 3 3 2-1 3-7-6-6-7z" fill="#fff"/>
<path transform="translate(887,449)" d="m0 0h2v5l-8 5h-3l1-5z" fill="#FEFAE2"/>
<path transform="translate(779,418)" d="m0 0 4 3-6 8-2-4-2-2 1-4z"/>
<path transform="translate(648,666)" d="m0 0 2 1-2 5-5 4-6 3-2-1z" fill="#fff"/>
<path transform="translate(746,411)" d="m0 0h6l-1 3 2 1 1 5-6 1-2-9z"/>
<path transform="translate(1063,761)" d="m0 0 6 1v2l-9 5h-5l1-3z" fill="#fff"/>
<path transform="translate(843,453)" d="m0 0 5 1 1 5-2 2-5-1-1-4z"/>
<path transform="translate(845,372)" d="m0 0 4 1 4-1 1 2-5 2-2 3-8 1 2-3-1-2h6z"/>
<path transform="translate(1025,780)" d="m0 0 7 1 1 3-6 2h-5l1-4z" fill="#fff"/>
<path transform="translate(680,430)" d="m0 0 5 1 3 3v2h-8l-4-2v-2h4z" fill="#FED200"/>
<path transform="translate(789,465)" d="m0 0 5 3 1 3-2 3h-2l-1 2-3-4z"/>
<path transform="translate(659,591)" d="m0 0 1 3-6 8-3-1 3-9z" fill="#FED200"/>
<path transform="translate(907,548)" d="m0 0h5l5 6 2 5-4-2-8-8z"/>
<path transform="translate(750,491)" d="m0 0h15l2 2-3 1h-11z"/>
<path transform="translate(502,787)" d="m0 0h7l3 1v2l-11 2-3 2 1-4z" fill="#fff"/>
<path transform="translate(809,508)" d="m0 0 5 1-4 3v2l-4 1-1 2-5-1 2-1v-3h4z" fill="#100003"/>
<path transform="translate(983,262)" d="m0 0h4l-2 5-6 5-1-4z" fill="#DC052B"/>
<path transform="translate(903,564)" d="m0 0 4 2 6 7 1 3-4-1-7-9z"/>
<path transform="translate(806,355)" d="m0 0 3 1 4-1-2 4-3 2h-5v-3z"/>
<path transform="translate(613,262)" d="m0 0 4 1 4 5-1 4-6-5-2-4z" fill="#DC052B"/>
<path transform="translate(713,442)" d="m0 0h5l1 5-2 2-4-1-1-4z" fill="#100003"/>
<path transform="translate(755,676)" d="m0 0h8l-1 5-3-1-1 3-2-4-3 3 1-5z" fill="#120003"/>
<path transform="translate(904,554)" d="m0 0 4 2 7 8 2 5-6-5-7-9z"/>
<path transform="translate(1066,755)" d="m0 0h2l2 4-11 2 2-4z"/>
<path transform="translate(964,619)" d="m0 0 6 2 5 4v2l-6-2-5-4z"/>
<path transform="translate(794,395)" d="m0 0h5l-5 6-4 1-2-5h4z" fill="#060001"/>
<path transform="translate(902,571)" d="m0 0 4 2 4 6 1 5-5-5z"/>
<path transform="translate(967,429)" d="m0 0 6 2 2 3-4 2h-4l1-5-2-1z"/>
<path transform="translate(768,604)" d="m0 0h2l-1 9-5 4 1-6z"/>
<path transform="translate(762,602)" d="m0 0 2 1v3h-2v5l-3 4h-2l1-4h2v-7z"/>
<path transform="translate(873,565)" d="m0 0 4 5 2 4-1 4-6-10z" fill="#0D0002"/>
<path transform="translate(762,738)" d="m0 0h4l1 7h-3l-3-4z" fill="#fff"/>
<path transform="translate(839,428)" d="m0 0h11v2l-10 2-2-3z" fill="#FEFDF6"/>
<path transform="translate(847,705)" d="m0 0 6 5 5 6-1 2-9-9z"/>
<path transform="translate(706,680)" d="m0 0 2 1v4l-7 2 2-4z" fill="#080001"/>
<path transform="translate(810,393)" d="m0 0h2l-1 3-8 4-2-1z" fill="#100003"/>
<path transform="translate(831,390)" d="m0 0 3 1-1 3-7 2 1-4z"/>
</svg>
