<svg width="21" height="20" viewBox="0 0 21 20" fill="none" xmlns="http://www.w3.org/2000/svg">
<path d="M16.0917 16.2501C15.4 17.2834 14.6667 18.2917 13.55 18.3084C12.4333 18.3334 12.075 17.6501 10.8083 17.6501C9.53333 17.6501 9.14166 18.2917 8.08333 18.3334C6.99166 18.3751 6.16666 17.2334 5.46666 16.2251C4.04166 14.1667 2.95 10.3751 4.41666 7.82508C5.14166 6.55841 6.44166 5.75841 7.85 5.73341C8.91666 5.71675 9.93333 6.45841 10.5917 6.45841C11.2417 6.45841 12.475 5.56675 13.7667 5.70008C14.3083 5.72508 15.825 5.91675 16.8 7.35008C16.725 7.40008 14.9917 8.41675 15.0083 10.5251C15.0333 13.0417 17.2167 13.8834 17.2417 13.8917C17.2167 13.9501 16.8917 15.0917 16.0917 16.2501ZM11.3333 2.91675C11.9417 2.22508 12.95 1.70008 13.7833 1.66675C13.8917 2.64175 13.5 3.62508 12.9167 4.32508C12.3417 5.03341 11.3917 5.58341 10.4583 5.50841C10.3333 4.55008 10.8 3.55008 11.3333 2.91675Z" fill="black"/>
</svg>
