<svg width="28" height="28" viewBox="0 0 28 28" fill="none" xmlns="http://www.w3.org/2000/svg">
<path fill-rule="evenodd" clip-rule="evenodd" d="M19.146 3.22997L19.1472 4.10453C22.3609 4.35641 24.4839 6.54631 24.4873 9.90463L24.5 19.7347C24.5046 23.3962 22.2043 25.6491 18.5171 25.6549L9.51053 25.6666C5.84639 25.6712 3.51729 23.3647 3.51268 19.6927L3.50001 9.97809C3.4954 6.59762 5.54345 4.41355 8.7572 4.11853L8.75605 3.24397C8.7549 2.73089 9.13502 2.34492 9.64185 2.34492C10.1487 2.34375 10.5288 2.72856 10.5299 3.24163L10.5311 4.05789L17.3733 4.04856L17.3721 3.2323C17.371 2.71923 17.7511 2.33442 18.2579 2.33325C18.7532 2.33209 19.1449 2.7169 19.146 3.22997ZM5.27506 10.3384L22.7146 10.3151V9.90696C22.665 7.39988 21.4072 6.08454 19.1495 5.88864L19.1506 6.78652C19.1506 7.28794 18.7601 7.68557 18.2648 7.68557C17.758 7.68674 17.3767 7.29027 17.3767 6.78886L17.3756 5.84433L10.5334 5.85366L10.5346 6.79702C10.5346 7.2996 10.1556 7.69607 9.64876 7.69607C9.14193 7.69724 8.76066 7.30193 8.76066 6.79935L8.7595 5.90147C6.51333 6.12652 5.27045 7.44653 5.27391 9.97576L5.27506 10.3384ZM17.7799 15.6383V15.6511C17.7914 16.1875 18.2291 16.5944 18.7601 16.5828C19.2785 16.57 19.692 16.1257 19.6805 15.5893C19.6563 15.0762 19.2405 14.6576 18.7233 14.6588C18.1934 14.6704 17.7787 15.1019 17.7799 15.6383ZM18.7313 20.874C18.2015 20.8623 17.7741 20.4204 17.773 19.884C17.7615 19.3476 18.1865 18.9033 18.7164 18.8905H18.7279C19.2693 18.8905 19.7081 19.3324 19.7081 19.8805C19.7093 20.4285 19.2716 20.8728 18.7313 20.874ZM13.0341 15.6569C13.0572 16.1933 13.496 16.6119 14.0259 16.5886C14.5443 16.5641 14.9578 16.121 14.9347 15.5846C14.9221 15.0599 14.4959 14.6518 13.9775 14.6529C13.4477 14.6762 13.033 15.1205 13.0341 15.6569ZM14.0305 20.8215C13.5007 20.8448 13.0629 20.4262 13.0387 19.8898C13.0387 19.3534 13.4523 18.9103 13.9821 18.8858C14.5005 18.8846 14.9278 19.2928 14.9394 19.8163C14.9635 20.3539 14.5489 20.797 14.0305 20.8215ZM8.28838 15.6977C8.31142 16.2341 8.75029 16.6539 9.28016 16.6294C9.7985 16.6061 10.212 16.1618 10.1878 15.6254C10.1763 15.1007 9.75012 14.6926 9.23062 14.6937C8.70076 14.7171 8.28723 15.1613 8.28838 15.6977ZM9.28476 20.8273C8.7549 20.8518 8.31718 20.432 8.29299 19.8956C8.29184 19.3592 8.70652 18.915 9.23638 18.8916C9.75473 18.8905 10.1821 19.2986 10.1936 19.8233C10.2178 20.3597 9.80426 20.804 9.28476 20.8273Z" fill="#A4634D"/>
</svg>
