<?xml version="1.0" encoding="iso-8859-1"?>
<!-- Uploaded to: SVG Repo, www.svgrepo.com, Generator: SVG Repo Mixer Tools -->
<!DOCTYPE svg PUBLIC "-//W3C//DTD SVG 1.1//EN" "http://www.w3.org/Graphics/SVG/1.1/DTD/svg11.dtd">
<svg fill="#000000" height="800px" width="800px" version="1.1" id="Capa_1" xmlns="http://www.w3.org/2000/svg" xmlns:xlink="http://www.w3.org/1999/xlink" 
	 viewBox="0 0 493.578 493.578" xml:space="preserve">
<path d="M482.822,22.109c-10.327-10.333-26.365-13.543-39.851-7.979c-63.674,26.178-179.31,78.922-238.477,138.08
	c-80.376,80.375-118.121,168.145-96.414,216.537L1.083,475.735c-1.217,1.235-1.43,3.139-0.527,4.625
	c0.897,1.477,2.696,2.135,4.365,1.612l60.324-19.499c5.136-1.662,9.794-4.512,13.612-8.326l57.436-57.446
	c8.941,3.997,19.122,6.301,30.602,6.301c50.59,0,123.514-40.26,185.827-102.571c59.166-59.151,111.912-174.8,138.095-238.478
	C496.452,48.231,493.305,32.586,482.822,22.109z M346.67,260.778l-74.645,0.194l34.764-34.753l65.668-0.216
	C364.088,238.543,355.468,250.208,346.67,260.778z M391.836,194.888l-53.899,0.175L446.602,86.398
	C431.925,119.52,413.109,158.599,391.836,194.888z M226.443,174.166c45.68-45.662,129.506-88.129,192.027-115.802L133.127,343.723
	C129.434,307.38,160.839,239.794,226.443,174.166z M161.416,371.581l79.479-79.486l75.556-0.185
	c-52.534,48.304-110.978,80.039-149.557,80.039C164.951,371.949,163.202,371.748,161.416,371.581z"/>
</svg>