<svg width="43" height="43" viewBox="0 0 43 43" fill="none" xmlns="http://www.w3.org/2000/svg">
<path d="M10.7501 3.5835H26.8751C27.8254 3.5835 28.7369 3.96102 29.4089 4.63303C30.0809 5.30504 30.4584 6.21647 30.4584 7.16683V10.7502H26.8751V7.16683H10.7501V35.8335H26.8751V32.2502H30.4584V35.8335C30.4584 36.7839 30.0809 37.6953 29.4089 38.3673C28.7369 39.0393 27.8254 39.4168 26.8751 39.4168H10.7501C9.79972 39.4168 8.88829 39.0393 8.21628 38.3673C7.54428 37.6953 7.16675 36.7839 7.16675 35.8335V7.16683C7.16675 6.21647 7.54428 5.30504 8.21628 4.63303C8.88829 3.96102 9.79972 3.5835 10.7501 3.5835Z" fill="black"/>
<path d="M28.8279 27.9319L31.3542 30.4582L40.3125 21.4998L31.3542 12.5415L28.8279 15.0678L33.4504 19.7082H16.125V23.2915H33.4504L28.8279 27.9319Z" fill="black"/>
</svg>
