<svg width="186" height="180" viewBox="0 0 186 180" fill="none" xmlns="http://www.w3.org/2000/svg">
<circle cx="95.5002" cy="90.5" r="70.5" fill="url(#paint0_linear_2629_2135)"/>
<circle cx="178.467" cy="27.5" r="7.5" fill="#C8A194"/>
<circle cx="20.0334" cy="10" r="10" fill="#C8A194"/>
<circle cx="10.0334" cy="133" r="5" fill="#C8A194"/>
<circle cx="165.533" cy="160.5" r="2.5" fill="#C8A194"/>
<path fill-rule="evenodd" clip-rule="evenodd" d="M84.8559 65.9164H106.17C114.503 65.9164 120.084 71.7672 120.084 80.4697V100.557C120.084 109.232 114.503 115.083 106.17 115.083H84.8559C76.5221 115.083 70.9171 109.232 70.9171 100.557V80.4697C70.9171 71.7672 76.5221 65.9164 84.8559 65.9164ZM94.0992 97.8501L105.776 86.173C106.612 85.3372 106.612 83.9851 105.776 83.1247C104.94 82.2889 103.564 82.2889 102.728 83.1247L92.575 93.2776L88.2729 88.9755C87.4371 88.1397 86.0604 88.1397 85.2246 88.9755C84.3888 89.8114 84.3888 91.1635 85.2246 92.0239L91.0754 97.8501C91.4934 98.268 92.0342 98.4647 92.575 98.4647C93.1404 98.4647 93.6813 98.268 94.0992 97.8501Z" fill="white"/>
<circle cx="106.533" cy="4.5" r="2.5" fill="#C8A194"/>
<circle cx="62.5334" cy="176.5" r="3.5" fill="#C8A194"/>
<circle cx="122.033" cy="171" r="1" fill="#C8A194"/>
<circle cx="170.533" cy="110.5" r="2.5" fill="#C8A194"/>
<circle cx="1.03345" cy="75" r="1" fill="#C8A194"/>
<defs>
<linearGradient id="paint0_linear_2629_2135" x1="166" y1="161" x2="-1.7771" y2="112.355" gradientUnits="userSpaceOnUse">
<stop stop-color="#A4634D"/>
<stop offset="1" stop-color="#AC7E6E"/>
</linearGradient>
</defs>
</svg>
